%TF.GenerationSoftware,KiCad,Pcbnew,(6.0.7)*%
%TF.CreationDate,2022-11-14T00:19:26-05:00*%
%TF.ProjectId,MASA_Rover_1.0,4d415341-5f52-46f7-9665-725f312e302e,rev?*%
%TF.SameCoordinates,Original*%
%TF.FileFunction,Paste,Top*%
%TF.FilePolarity,Positive*%
%FSLAX46Y46*%
G04 Gerber Fmt 4.6, Leading zero omitted, Abs format (unit mm)*
G04 Created by KiCad (PCBNEW (6.0.7)) date 2022-11-14 00:19:26*
%MOMM*%
%LPD*%
G01*
G04 APERTURE LIST*
G04 Aperture macros list*
%AMRoundRect*
0 Rectangle with rounded corners*
0 $1 Rounding radius*
0 $2 $3 $4 $5 $6 $7 $8 $9 X,Y pos of 4 corners*
0 Add a 4 corners polygon primitive as box body*
4,1,4,$2,$3,$4,$5,$6,$7,$8,$9,$2,$3,0*
0 Add four circle primitives for the rounded corners*
1,1,$1+$1,$2,$3*
1,1,$1+$1,$4,$5*
1,1,$1+$1,$6,$7*
1,1,$1+$1,$8,$9*
0 Add four rect primitives between the rounded corners*
20,1,$1+$1,$2,$3,$4,$5,0*
20,1,$1+$1,$4,$5,$6,$7,0*
20,1,$1+$1,$6,$7,$8,$9,0*
20,1,$1+$1,$8,$9,$2,$3,0*%
G04 Aperture macros list end*
%ADD10RoundRect,0.250000X0.350000X0.450000X-0.350000X0.450000X-0.350000X-0.450000X0.350000X-0.450000X0*%
%ADD11RoundRect,0.249999X-1.425001X0.450001X-1.425001X-0.450001X1.425001X-0.450001X1.425001X0.450001X0*%
%ADD12RoundRect,0.250000X0.450000X-0.350000X0.450000X0.350000X-0.450000X0.350000X-0.450000X-0.350000X0*%
%ADD13RoundRect,0.250000X-0.337500X-0.475000X0.337500X-0.475000X0.337500X0.475000X-0.337500X0.475000X0*%
%ADD14RoundRect,0.150000X0.587500X0.150000X-0.587500X0.150000X-0.587500X-0.150000X0.587500X-0.150000X0*%
%ADD15RoundRect,0.250000X-0.475000X0.337500X-0.475000X-0.337500X0.475000X-0.337500X0.475000X0.337500X0*%
%ADD16R,0.400000X0.650000*%
%ADD17R,0.880000X1.050000*%
%ADD18R,1.050000X0.450000*%
%ADD19RoundRect,0.250000X-0.350000X-0.450000X0.350000X-0.450000X0.350000X0.450000X-0.350000X0.450000X0*%
%ADD20RoundRect,0.250000X-0.325000X-0.450000X0.325000X-0.450000X0.325000X0.450000X-0.325000X0.450000X0*%
%ADD21RoundRect,0.250000X0.337500X0.475000X-0.337500X0.475000X-0.337500X-0.475000X0.337500X-0.475000X0*%
%ADD22R,0.400000X1.500000*%
%ADD23RoundRect,0.250000X0.550000X-1.412500X0.550000X1.412500X-0.550000X1.412500X-0.550000X-1.412500X0*%
%ADD24RoundRect,0.250000X0.475000X-0.337500X0.475000X0.337500X-0.475000X0.337500X-0.475000X-0.337500X0*%
%ADD25RoundRect,0.812750X0.812750X-0.906750X0.812750X0.906750X-0.812750X0.906750X-0.812750X-0.906750X0*%
%ADD26RoundRect,0.150000X-0.150000X0.587500X-0.150000X-0.587500X0.150000X-0.587500X0.150000X0.587500X0*%
%ADD27RoundRect,0.150000X-0.875000X-0.150000X0.875000X-0.150000X0.875000X0.150000X-0.875000X0.150000X0*%
%ADD28R,1.200000X0.400000*%
%ADD29R,0.400000X1.100000*%
%ADD30RoundRect,0.250001X0.462499X1.074999X-0.462499X1.074999X-0.462499X-1.074999X0.462499X-1.074999X0*%
%ADD31RoundRect,0.250000X-0.450000X0.350000X-0.450000X-0.350000X0.450000X-0.350000X0.450000X0.350000X0*%
%ADD32RoundRect,0.250000X-0.450000X0.325000X-0.450000X-0.325000X0.450000X-0.325000X0.450000X0.325000X0*%
%ADD33RoundRect,0.100000X-0.100000X0.712500X-0.100000X-0.712500X0.100000X-0.712500X0.100000X0.712500X0*%
%ADD34RoundRect,0.100000X-0.637500X-0.100000X0.637500X-0.100000X0.637500X0.100000X-0.637500X0.100000X0*%
%ADD35RoundRect,0.250000X-1.412500X-0.550000X1.412500X-0.550000X1.412500X0.550000X-1.412500X0.550000X0*%
%ADD36RoundRect,0.250000X0.450000X-0.325000X0.450000X0.325000X-0.450000X0.325000X-0.450000X-0.325000X0*%
%ADD37R,1.550000X1.300000*%
G04 APERTURE END LIST*
D10*
%TO.C,R42*%
X51038000Y-146177000D03*
X49038000Y-146177000D03*
%TD*%
D11*
%TO.C,R19*%
X154051000Y-71372000D03*
X154051000Y-77472000D03*
%TD*%
D12*
%TO.C,R45*%
X57150000Y-144383000D03*
X57150000Y-142383000D03*
%TD*%
D13*
%TO.C,C30*%
X130915500Y-89662000D03*
X132990500Y-89662000D03*
%TD*%
D14*
%TO.C,Q10*%
X55039500Y-144333000D03*
X55039500Y-142433000D03*
X53164500Y-143383000D03*
%TD*%
D10*
%TO.C,R39*%
X51038000Y-139827000D03*
X49038000Y-139827000D03*
%TD*%
D15*
%TO.C,C21*%
X88011000Y-86656000D03*
X88011000Y-88731000D03*
%TD*%
D10*
%TO.C,R43*%
X85645500Y-97028000D03*
X83645500Y-97028000D03*
%TD*%
D16*
%TO.C,Q2*%
X136286000Y-87823000D03*
X135636000Y-87823000D03*
X134986000Y-87823000D03*
X134986000Y-89723000D03*
X135636000Y-89723000D03*
X136286000Y-89723000D03*
%TD*%
D13*
%TO.C,C28*%
X142472500Y-87930500D03*
X144547500Y-87930500D03*
%TD*%
D10*
%TO.C,R30*%
X132953000Y-91821000D03*
X130953000Y-91821000D03*
%TD*%
D17*
%TO.C,U13*%
X110065400Y-129667000D03*
X107798600Y-133417000D03*
X107798600Y-132167000D03*
X107798600Y-129667000D03*
X108932000Y-129667000D03*
X110065400Y-132167000D03*
X108932000Y-132167000D03*
X108932000Y-133417000D03*
X110065400Y-130917000D03*
X108932000Y-130917000D03*
X110065400Y-133417000D03*
X107798600Y-130917000D03*
D18*
X106157000Y-129267000D03*
X106157000Y-129917000D03*
X106157000Y-130567000D03*
X106157000Y-131217000D03*
X106157000Y-131867000D03*
X106157000Y-132517000D03*
X106157000Y-133167000D03*
X106157000Y-133817000D03*
X111707000Y-133817000D03*
X111707000Y-133167000D03*
X111707000Y-132517000D03*
X111707000Y-131867000D03*
X111707000Y-131217000D03*
X111707000Y-130567000D03*
X111707000Y-129917000D03*
X111707000Y-129267000D03*
%TD*%
D15*
%TO.C,C22*%
X85852000Y-86656000D03*
X85852000Y-88731000D03*
%TD*%
D19*
%TO.C,R44*%
X83645500Y-94932500D03*
X85645500Y-94932500D03*
%TD*%
%TO.C,R50*%
X73866500Y-99695000D03*
X75866500Y-99695000D03*
%TD*%
D11*
%TO.C,R18*%
X154051000Y-63244000D03*
X154051000Y-69344000D03*
%TD*%
D20*
%TO.C,D4*%
X37964000Y-70494500D03*
X40014000Y-70494500D03*
%TD*%
D21*
%TO.C,C46*%
X117787500Y-132500000D03*
X115712500Y-132500000D03*
%TD*%
D15*
%TO.C,C41*%
X75628500Y-128439000D03*
X75628500Y-130514000D03*
%TD*%
D22*
%TO.C,U1*%
X135831000Y-69655000D03*
X136481000Y-69655000D03*
X137131000Y-69655000D03*
X137131000Y-66995000D03*
X136481000Y-66995000D03*
X135831000Y-66995000D03*
%TD*%
D23*
%TO.C,C16*%
X111760000Y-72387500D03*
X111760000Y-67312500D03*
%TD*%
D21*
%TO.C,C12*%
X111146500Y-88265000D03*
X109071500Y-88265000D03*
%TD*%
%TO.C,C31*%
X43582500Y-124079000D03*
X41507500Y-124079000D03*
%TD*%
D19*
%TO.C,R38*%
X53102000Y-139827000D03*
X55102000Y-139827000D03*
%TD*%
%TO.C,R27*%
X130953000Y-87503000D03*
X132953000Y-87503000D03*
%TD*%
D15*
%TO.C,C39*%
X84010500Y-132439500D03*
X84010500Y-134514500D03*
%TD*%
D19*
%TO.C,R41*%
X53229000Y-146177000D03*
X55229000Y-146177000D03*
%TD*%
D21*
%TO.C,C76*%
X111146500Y-93091000D03*
X109071500Y-93091000D03*
%TD*%
D17*
%TO.C,U10*%
X69308000Y-132167000D03*
X68174600Y-129667000D03*
X70441400Y-132167000D03*
X68174600Y-130917000D03*
X69308000Y-129667000D03*
X70441400Y-129667000D03*
X69308000Y-133417000D03*
X70441400Y-130917000D03*
X70441400Y-133417000D03*
X68174600Y-133417000D03*
X69308000Y-130917000D03*
X68174600Y-132167000D03*
D18*
X66533000Y-129267000D03*
X66533000Y-129917000D03*
X66533000Y-130567000D03*
X66533000Y-131217000D03*
X66533000Y-131867000D03*
X66533000Y-132517000D03*
X66533000Y-133167000D03*
X66533000Y-133817000D03*
X72083000Y-133817000D03*
X72083000Y-133167000D03*
X72083000Y-132517000D03*
X72083000Y-131867000D03*
X72083000Y-131217000D03*
X72083000Y-130567000D03*
X72083000Y-129917000D03*
X72083000Y-129267000D03*
%TD*%
D12*
%TO.C,R40*%
X57150000Y-138160000D03*
X57150000Y-136160000D03*
%TD*%
D24*
%TO.C,C1*%
X44196000Y-54758500D03*
X44196000Y-52683500D03*
%TD*%
D10*
%TO.C,R53*%
X75866500Y-95377000D03*
X73866500Y-95377000D03*
%TD*%
D12*
%TO.C,R34*%
X57150000Y-126095000D03*
X57150000Y-124095000D03*
%TD*%
D25*
%TO.C,L1*%
X114173000Y-84831000D03*
X114173000Y-76205000D03*
%TD*%
D26*
%TO.C,Q3*%
X138618000Y-77040500D03*
X136718000Y-77040500D03*
X137668000Y-78915500D03*
%TD*%
D15*
%TO.C,C47*%
X103695500Y-132376000D03*
X103695500Y-134451000D03*
%TD*%
D12*
%TO.C,R37*%
X57150000Y-132191000D03*
X57150000Y-130191000D03*
%TD*%
D27*
%TO.C,U5*%
X124572500Y-105219500D03*
X124572500Y-106489500D03*
X124572500Y-107759500D03*
X124572500Y-109029500D03*
X124572500Y-110299500D03*
X124572500Y-111569500D03*
X124572500Y-112839500D03*
X124572500Y-114109500D03*
X124572500Y-115379500D03*
X124572500Y-116649500D03*
X124572500Y-117919500D03*
X124572500Y-119189500D03*
X133872500Y-119189500D03*
X133872500Y-117919500D03*
X133872500Y-116649500D03*
X133872500Y-115379500D03*
X133872500Y-114109500D03*
X133872500Y-112839500D03*
X133872500Y-111569500D03*
X133872500Y-110299500D03*
X133872500Y-109029500D03*
X133872500Y-107759500D03*
X133872500Y-106489500D03*
X133872500Y-105219500D03*
%TD*%
D10*
%TO.C,R31*%
X142732000Y-76754500D03*
X140732000Y-76754500D03*
%TD*%
D28*
%TO.C,U4*%
X78362500Y-88582500D03*
X78362500Y-89217500D03*
X78362500Y-89852500D03*
X78362500Y-90487500D03*
X78362500Y-91122500D03*
X78362500Y-91757500D03*
X78362500Y-92392500D03*
X78362500Y-93027500D03*
X83562500Y-93027500D03*
X83562500Y-92392500D03*
X83562500Y-91757500D03*
X83562500Y-91122500D03*
X83562500Y-90487500D03*
X83562500Y-89852500D03*
X83562500Y-89217500D03*
X83562500Y-88582500D03*
%TD*%
D12*
%TO.C,R21*%
X150749000Y-64881000D03*
X150749000Y-62881000D03*
%TD*%
D14*
%TO.C,Q7*%
X50975500Y-132141000D03*
X50975500Y-130241000D03*
X49100500Y-131191000D03*
%TD*%
D29*
%TO.C,U9*%
X135677000Y-85508500D03*
X136327000Y-85508500D03*
X136977000Y-85508500D03*
X137627000Y-85508500D03*
X137627000Y-81208500D03*
X136977000Y-81208500D03*
X136327000Y-81208500D03*
X135677000Y-81208500D03*
%TD*%
D12*
%TO.C,R29*%
X139700000Y-83215500D03*
X139700000Y-81215500D03*
%TD*%
D21*
%TO.C,C33*%
X43582500Y-136271000D03*
X41507500Y-136271000D03*
%TD*%
D20*
%TO.C,D5*%
X37964000Y-67954500D03*
X40014000Y-67954500D03*
%TD*%
D19*
%TO.C,R52*%
X73866500Y-93218000D03*
X75866500Y-93218000D03*
%TD*%
D14*
%TO.C,Q4*%
X55039500Y-126045000D03*
X55039500Y-124145000D03*
X53164500Y-125095000D03*
%TD*%
D30*
%TO.C,L2*%
X119724500Y-72517000D03*
X116749500Y-72517000D03*
%TD*%
D10*
%TO.C,R51*%
X75866500Y-97536000D03*
X73866500Y-97536000D03*
%TD*%
D15*
%TO.C,C37*%
X62103000Y-132334000D03*
X62103000Y-134409000D03*
%TD*%
D31*
%TO.C,R5*%
X146050000Y-54499000D03*
X146050000Y-56499000D03*
%TD*%
D10*
%TO.C,R2*%
X136509000Y-73152000D03*
X134509000Y-73152000D03*
%TD*%
D17*
%TO.C,U12*%
X128236000Y-132538000D03*
X127102600Y-131288000D03*
X129369400Y-132538000D03*
X127102600Y-130038000D03*
X128236000Y-130038000D03*
X127102600Y-128788000D03*
X129369400Y-131288000D03*
X129369400Y-128788000D03*
X128236000Y-128788000D03*
X128236000Y-131288000D03*
X129369400Y-130038000D03*
X127102600Y-132538000D03*
D18*
X125461000Y-128388000D03*
X125461000Y-129038000D03*
X125461000Y-129688000D03*
X125461000Y-130338000D03*
X125461000Y-130988000D03*
X125461000Y-131638000D03*
X125461000Y-132288000D03*
X125461000Y-132938000D03*
X131011000Y-132938000D03*
X131011000Y-132288000D03*
X131011000Y-131638000D03*
X131011000Y-130988000D03*
X131011000Y-130338000D03*
X131011000Y-129688000D03*
X131011000Y-129038000D03*
X131011000Y-128388000D03*
%TD*%
D24*
%TO.C,C2*%
X46482000Y-54758500D03*
X46482000Y-52683500D03*
%TD*%
D14*
%TO.C,Q11*%
X50975500Y-144333000D03*
X50975500Y-142433000D03*
X49100500Y-143383000D03*
%TD*%
D32*
%TO.C,D3*%
X148200000Y-58919000D03*
X148200000Y-60969000D03*
%TD*%
D17*
%TO.C,U11*%
X90253400Y-132167000D03*
X89120000Y-132167000D03*
X87986600Y-129667000D03*
X90253400Y-129667000D03*
X87986600Y-132167000D03*
X89120000Y-130917000D03*
X87986600Y-133417000D03*
X90253400Y-133417000D03*
X89120000Y-129667000D03*
X90253400Y-130917000D03*
X87986600Y-130917000D03*
X89120000Y-133417000D03*
D18*
X86345000Y-129267000D03*
X86345000Y-129917000D03*
X86345000Y-130567000D03*
X86345000Y-131217000D03*
X86345000Y-131867000D03*
X86345000Y-132517000D03*
X86345000Y-133167000D03*
X86345000Y-133817000D03*
X91895000Y-133817000D03*
X91895000Y-133167000D03*
X91895000Y-132517000D03*
X91895000Y-131867000D03*
X91895000Y-131217000D03*
X91895000Y-130567000D03*
X91895000Y-129917000D03*
X91895000Y-129267000D03*
%TD*%
D10*
%TO.C,R33*%
X51038000Y-127889000D03*
X49038000Y-127889000D03*
%TD*%
D31*
%TO.C,R28*%
X138303000Y-87773000D03*
X138303000Y-89773000D03*
%TD*%
D15*
%TO.C,C40*%
X81851500Y-132439500D03*
X81851500Y-134514500D03*
%TD*%
%TO.C,C49*%
X135250000Y-127675000D03*
X135250000Y-129750000D03*
%TD*%
%TO.C,C48*%
X101536500Y-132376000D03*
X101536500Y-134451000D03*
%TD*%
D19*
%TO.C,R7*%
X37989000Y-72653500D03*
X39989000Y-72653500D03*
%TD*%
D33*
%TO.C,U8*%
X143723000Y-81246000D03*
X143073000Y-81246000D03*
X142423000Y-81246000D03*
X141773000Y-81246000D03*
X141773000Y-85471000D03*
X142423000Y-85471000D03*
X143073000Y-85471000D03*
X143723000Y-85471000D03*
%TD*%
D21*
%TO.C,C38*%
X98037500Y-132000000D03*
X95962500Y-132000000D03*
%TD*%
D33*
%TO.C,U7*%
X148676000Y-64816500D03*
X148026000Y-64816500D03*
X147376000Y-64816500D03*
X146726000Y-64816500D03*
X146726000Y-69041500D03*
X147376000Y-69041500D03*
X148026000Y-69041500D03*
X148676000Y-69041500D03*
%TD*%
D34*
%TO.C,U6*%
X72575500Y-110075000D03*
X72575500Y-110725000D03*
X72575500Y-111375000D03*
X72575500Y-112025000D03*
X72575500Y-112675000D03*
X72575500Y-113325000D03*
X72575500Y-113975000D03*
X72575500Y-114625000D03*
X72575500Y-115275000D03*
X72575500Y-115925000D03*
X72575500Y-116575000D03*
X72575500Y-117225000D03*
X72575500Y-117875000D03*
X72575500Y-118525000D03*
X78300500Y-118525000D03*
X78300500Y-117875000D03*
X78300500Y-117225000D03*
X78300500Y-116575000D03*
X78300500Y-115925000D03*
X78300500Y-115275000D03*
X78300500Y-114625000D03*
X78300500Y-113975000D03*
X78300500Y-113325000D03*
X78300500Y-112675000D03*
X78300500Y-112025000D03*
X78300500Y-111375000D03*
X78300500Y-110725000D03*
X78300500Y-110075000D03*
%TD*%
D15*
%TO.C,C29*%
X134620000Y-76860000D03*
X134620000Y-78935000D03*
%TD*%
D12*
%TO.C,R24*%
X144653000Y-66659000D03*
X144653000Y-64659000D03*
%TD*%
D35*
%TO.C,C11*%
X113667500Y-90678000D03*
X118742500Y-90678000D03*
%TD*%
D13*
%TO.C,C27*%
X146663500Y-71501000D03*
X148738500Y-71501000D03*
%TD*%
D19*
%TO.C,R8*%
X37961548Y-65795500D03*
X39961548Y-65795500D03*
%TD*%
D21*
%TO.C,C35*%
X79206000Y-132397500D03*
X77131000Y-132397500D03*
%TD*%
%TO.C,C32*%
X43582500Y-130175000D03*
X41507500Y-130175000D03*
%TD*%
D12*
%TO.C,R25*%
X140462000Y-89773000D03*
X140462000Y-87773000D03*
%TD*%
D15*
%TO.C,C44*%
X123253500Y-131296500D03*
X123253500Y-133371500D03*
%TD*%
%TO.C,C45*%
X121094500Y-131296500D03*
X121094500Y-133371500D03*
%TD*%
D19*
%TO.C,R22*%
X143526000Y-78867000D03*
X145526000Y-78867000D03*
%TD*%
D15*
%TO.C,C36*%
X64135000Y-132334000D03*
X64135000Y-134409000D03*
%TD*%
D19*
%TO.C,R35*%
X53102000Y-133985000D03*
X55102000Y-133985000D03*
%TD*%
D31*
%TO.C,R6*%
X148082000Y-54499000D03*
X148082000Y-56499000D03*
%TD*%
D14*
%TO.C,Q8*%
X55039500Y-137983000D03*
X55039500Y-136083000D03*
X53164500Y-137033000D03*
%TD*%
D10*
%TO.C,R36*%
X51038000Y-133985000D03*
X49038000Y-133985000D03*
%TD*%
D19*
%TO.C,R17*%
X81867500Y-112649000D03*
X83867500Y-112649000D03*
%TD*%
D21*
%TO.C,C34*%
X43582500Y-142367000D03*
X41507500Y-142367000D03*
%TD*%
%TO.C,C43*%
X137287500Y-131712500D03*
X135212500Y-131712500D03*
%TD*%
D36*
%TO.C,D2*%
X145900000Y-60969000D03*
X145900000Y-58919000D03*
%TD*%
D24*
%TO.C,C15*%
X116840000Y-69490500D03*
X116840000Y-67415500D03*
%TD*%
D15*
%TO.C,C42*%
X96050000Y-127925000D03*
X96050000Y-130000000D03*
%TD*%
D10*
%TO.C,R26*%
X138668000Y-91821000D03*
X136668000Y-91821000D03*
%TD*%
D14*
%TO.C,Q5*%
X50975500Y-126045000D03*
X50975500Y-124145000D03*
X49100500Y-125095000D03*
%TD*%
%TO.C,Q9*%
X50975500Y-137983000D03*
X50975500Y-136083000D03*
X49100500Y-137033000D03*
%TD*%
D37*
%TO.C,S3*%
X44539000Y-70204500D03*
X52489000Y-70204500D03*
X52489000Y-65704500D03*
X44539000Y-65704500D03*
%TD*%
D19*
%TO.C,R32*%
X53102000Y-127889000D03*
X55102000Y-127889000D03*
%TD*%
D14*
%TO.C,Q6*%
X55039500Y-132141000D03*
X55039500Y-130241000D03*
X53164500Y-131191000D03*
%TD*%
D15*
%TO.C,C50*%
X115750000Y-128462500D03*
X115750000Y-130537500D03*
%TD*%
M02*
