%TF.GenerationSoftware,KiCad,Pcbnew,(6.0.7)*%
%TF.CreationDate,2022-11-14T00:19:26-05:00*%
%TF.ProjectId,MASA_Rover_1.0,4d415341-5f52-46f7-9665-725f312e302e,rev?*%
%TF.SameCoordinates,Original*%
%TF.FileFunction,Soldermask,Top*%
%TF.FilePolarity,Negative*%
%FSLAX46Y46*%
G04 Gerber Fmt 4.6, Leading zero omitted, Abs format (unit mm)*
G04 Created by KiCad (PCBNEW (6.0.7)) date 2022-11-14 00:19:26*
%MOMM*%
%LPD*%
G01*
G04 APERTURE LIST*
G04 Aperture macros list*
%AMRoundRect*
0 Rectangle with rounded corners*
0 $1 Rounding radius*
0 $2 $3 $4 $5 $6 $7 $8 $9 X,Y pos of 4 corners*
0 Add a 4 corners polygon primitive as box body*
4,1,4,$2,$3,$4,$5,$6,$7,$8,$9,$2,$3,0*
0 Add four circle primitives for the rounded corners*
1,1,$1+$1,$2,$3*
1,1,$1+$1,$4,$5*
1,1,$1+$1,$6,$7*
1,1,$1+$1,$8,$9*
0 Add four rect primitives between the rounded corners*
20,1,$1+$1,$2,$3,$4,$5,0*
20,1,$1+$1,$4,$5,$6,$7,0*
20,1,$1+$1,$6,$7,$8,$9,0*
20,1,$1+$1,$8,$9,$2,$3,0*%
G04 Aperture macros list end*
%ADD10RoundRect,0.250000X0.350000X0.450000X-0.350000X0.450000X-0.350000X-0.450000X0.350000X-0.450000X0*%
%ADD11RoundRect,0.249999X-1.425001X0.450001X-1.425001X-0.450001X1.425001X-0.450001X1.425001X0.450001X0*%
%ADD12RoundRect,0.250000X0.450000X-0.350000X0.450000X0.350000X-0.450000X0.350000X-0.450000X-0.350000X0*%
%ADD13RoundRect,0.250000X-0.337500X-0.475000X0.337500X-0.475000X0.337500X0.475000X-0.337500X0.475000X0*%
%ADD14RoundRect,0.150000X0.587500X0.150000X-0.587500X0.150000X-0.587500X-0.150000X0.587500X-0.150000X0*%
%ADD15R,1.700000X1.700000*%
%ADD16O,1.700000X1.700000*%
%ADD17C,2.000000*%
%ADD18O,4.000000X2.800000*%
%ADD19C,3.000000*%
%ADD20C,2.700000*%
%ADD21RoundRect,0.250000X-0.475000X0.337500X-0.475000X-0.337500X0.475000X-0.337500X0.475000X0.337500X0*%
%ADD22R,0.400000X0.650000*%
%ADD23R,1.050000X0.450000*%
%ADD24R,3.400000X5.000000*%
%ADD25RoundRect,0.250000X-0.350000X-0.450000X0.350000X-0.450000X0.350000X0.450000X-0.350000X0.450000X0*%
%ADD26RoundRect,0.250000X-0.325000X-0.450000X0.325000X-0.450000X0.325000X0.450000X-0.325000X0.450000X0*%
%ADD27RoundRect,0.250000X0.337500X0.475000X-0.337500X0.475000X-0.337500X-0.475000X0.337500X-0.475000X0*%
%ADD28R,0.400000X1.500000*%
%ADD29RoundRect,0.250000X0.550000X-1.412500X0.550000X1.412500X-0.550000X1.412500X-0.550000X-1.412500X0*%
%ADD30RoundRect,0.250000X0.475000X-0.337500X0.475000X0.337500X-0.475000X0.337500X-0.475000X-0.337500X0*%
%ADD31C,3.200000*%
%ADD32R,1.500000X1.500000*%
%ADD33C,1.500000*%
%ADD34RoundRect,0.812750X0.812750X-0.906750X0.812750X0.906750X-0.812750X0.906750X-0.812750X-0.906750X0*%
%ADD35RoundRect,0.150000X-0.150000X0.587500X-0.150000X-0.587500X0.150000X-0.587500X0.150000X0.587500X0*%
%ADD36RoundRect,0.150000X-0.875000X-0.150000X0.875000X-0.150000X0.875000X0.150000X-0.875000X0.150000X0*%
%ADD37R,1.200000X0.400000*%
%ADD38R,0.400000X1.100000*%
%ADD39RoundRect,0.250001X0.462499X1.074999X-0.462499X1.074999X-0.462499X-1.074999X0.462499X-1.074999X0*%
%ADD40RoundRect,0.250000X-0.450000X0.350000X-0.450000X-0.350000X0.450000X-0.350000X0.450000X0.350000X0*%
%ADD41RoundRect,0.250000X-0.450000X0.325000X-0.450000X-0.325000X0.450000X-0.325000X0.450000X0.325000X0*%
%ADD42C,1.440000*%
%ADD43R,1.800000X2.600000*%
%ADD44O,1.800000X2.600000*%
%ADD45RoundRect,0.100000X-0.100000X0.712500X-0.100000X-0.712500X0.100000X-0.712500X0.100000X0.712500X0*%
%ADD46RoundRect,0.100000X-0.637500X-0.100000X0.637500X-0.100000X0.637500X0.100000X-0.637500X0.100000X0*%
%ADD47RoundRect,0.250000X-1.412500X-0.550000X1.412500X-0.550000X1.412500X0.550000X-1.412500X0.550000X0*%
%ADD48RoundRect,0.250000X0.450000X-0.325000X0.450000X0.325000X-0.450000X0.325000X-0.450000X-0.325000X0*%
%ADD49R,1.550000X1.300000*%
%ADD50R,1.600000X1.600000*%
%ADD51O,1.600000X1.600000*%
G04 APERTURE END LIST*
D10*
%TO.C,R42*%
X51038000Y-146177000D03*
X49038000Y-146177000D03*
%TD*%
D11*
%TO.C,R19*%
X154051000Y-71372000D03*
X154051000Y-77472000D03*
%TD*%
D12*
%TO.C,R45*%
X57150000Y-144383000D03*
X57150000Y-142383000D03*
%TD*%
D13*
%TO.C,C30*%
X130915500Y-89662000D03*
X132990500Y-89662000D03*
%TD*%
D14*
%TO.C,Q10*%
X55039500Y-144333000D03*
X55039500Y-142433000D03*
X53164500Y-143383000D03*
%TD*%
D15*
%TO.C,J13*%
X46213000Y-133096000D03*
D16*
X43673000Y-133096000D03*
X41133000Y-133096000D03*
%TD*%
D17*
%TO.C,S2*%
X38462000Y-83526000D03*
X38462000Y-78526000D03*
D18*
X45462000Y-86526000D03*
X45462000Y-75526000D03*
D17*
X52962000Y-83526000D03*
X52962000Y-78526000D03*
X52962000Y-81026000D03*
%TD*%
D19*
%TO.C,J9*%
X163917000Y-84658000D03*
X163917000Y-77648000D03*
X158917000Y-84658000D03*
X158917000Y-77648000D03*
%TD*%
D20*
%TO.C,REF\u002A\u002A*%
X153900000Y-131826000D03*
%TD*%
D10*
%TO.C,R39*%
X51038000Y-139827000D03*
X49038000Y-139827000D03*
%TD*%
D20*
%TO.C,REF\u002A\u002A*%
X39790000Y-59086500D03*
%TD*%
D21*
%TO.C,C21*%
X88011000Y-86656000D03*
X88011000Y-88731000D03*
%TD*%
D10*
%TO.C,R43*%
X85645500Y-97028000D03*
X83645500Y-97028000D03*
%TD*%
D22*
%TO.C,Q2*%
X136286000Y-87823000D03*
X135636000Y-87823000D03*
X134986000Y-87823000D03*
X134986000Y-89723000D03*
X135636000Y-89723000D03*
X136286000Y-89723000D03*
%TD*%
D13*
%TO.C,C28*%
X142472500Y-87930500D03*
X144547500Y-87930500D03*
%TD*%
D10*
%TO.C,R30*%
X132953000Y-91821000D03*
X130953000Y-91821000D03*
%TD*%
D20*
%TO.C,REF\u002A\u002A*%
X153924000Y-59086500D03*
%TD*%
D15*
%TO.C,J15*%
X46228000Y-145288000D03*
D16*
X43688000Y-145288000D03*
X41148000Y-145288000D03*
%TD*%
D23*
%TO.C,U13*%
X106157000Y-129267000D03*
X106157000Y-129917000D03*
X106157000Y-130567000D03*
X106157000Y-131217000D03*
X106157000Y-131867000D03*
X106157000Y-132517000D03*
X106157000Y-133167000D03*
X106157000Y-133817000D03*
X111707000Y-133817000D03*
X111707000Y-133167000D03*
X111707000Y-132517000D03*
X111707000Y-131867000D03*
X111707000Y-131217000D03*
X111707000Y-130567000D03*
X111707000Y-129917000D03*
X111707000Y-129267000D03*
D24*
X108932000Y-131542000D03*
%TD*%
D21*
%TO.C,C22*%
X85852000Y-86656000D03*
X85852000Y-88731000D03*
%TD*%
D25*
%TO.C,R44*%
X83645500Y-94932500D03*
X85645500Y-94932500D03*
%TD*%
%TO.C,R50*%
X73866500Y-99695000D03*
X75866500Y-99695000D03*
%TD*%
D19*
%TO.C,J8*%
X158917000Y-55677000D03*
X158917000Y-62687000D03*
X163917000Y-62687000D03*
X163917000Y-55677000D03*
%TD*%
D11*
%TO.C,R18*%
X154051000Y-63244000D03*
X154051000Y-69344000D03*
%TD*%
D19*
%TO.C,J5*%
X109500000Y-54407000D03*
X114500000Y-61417000D03*
X114500000Y-54407000D03*
X109500000Y-61417000D03*
%TD*%
%TO.C,J16*%
X59995000Y-143470000D03*
X67005000Y-143470000D03*
X67005000Y-138470000D03*
X59995000Y-138470000D03*
%TD*%
D26*
%TO.C,D4*%
X37964000Y-70494500D03*
X40014000Y-70494500D03*
%TD*%
D15*
%TO.C,J12*%
X46213000Y-127000000D03*
D16*
X43673000Y-127000000D03*
X41133000Y-127000000D03*
%TD*%
D27*
%TO.C,C46*%
X117787500Y-132500000D03*
X115712500Y-132500000D03*
%TD*%
D21*
%TO.C,C41*%
X75628500Y-128439000D03*
X75628500Y-130514000D03*
%TD*%
D28*
%TO.C,U1*%
X135831000Y-69655000D03*
X136481000Y-69655000D03*
X137131000Y-69655000D03*
X137131000Y-66995000D03*
X136481000Y-66995000D03*
X135831000Y-66995000D03*
%TD*%
D29*
%TO.C,C16*%
X111760000Y-72387500D03*
X111760000Y-67312500D03*
%TD*%
D27*
%TO.C,C12*%
X111146500Y-88265000D03*
X109071500Y-88265000D03*
%TD*%
%TO.C,C31*%
X43582500Y-124079000D03*
X41507500Y-124079000D03*
%TD*%
D25*
%TO.C,R38*%
X53102000Y-139827000D03*
X55102000Y-139827000D03*
%TD*%
%TO.C,R27*%
X130953000Y-87503000D03*
X132953000Y-87503000D03*
%TD*%
D19*
%TO.C,J22*%
X141427000Y-138470000D03*
X134417000Y-143470000D03*
X141427000Y-143470000D03*
X134417000Y-138470000D03*
%TD*%
%TO.C,J29*%
X168605000Y-138470000D03*
X161595000Y-143470000D03*
X168605000Y-143470000D03*
X161595000Y-138470000D03*
%TD*%
D21*
%TO.C,C39*%
X84010500Y-132439500D03*
X84010500Y-134514500D03*
%TD*%
D25*
%TO.C,R41*%
X53229000Y-146177000D03*
X55229000Y-146177000D03*
%TD*%
D27*
%TO.C,C76*%
X111146500Y-93091000D03*
X109071500Y-93091000D03*
%TD*%
D23*
%TO.C,U10*%
X66533000Y-129267000D03*
X66533000Y-129917000D03*
X66533000Y-130567000D03*
X66533000Y-131217000D03*
X66533000Y-131867000D03*
X66533000Y-132517000D03*
X66533000Y-133167000D03*
X66533000Y-133817000D03*
X72083000Y-133817000D03*
X72083000Y-133167000D03*
X72083000Y-132517000D03*
X72083000Y-131867000D03*
X72083000Y-131217000D03*
X72083000Y-130567000D03*
X72083000Y-129917000D03*
X72083000Y-129267000D03*
D24*
X69308000Y-131542000D03*
%TD*%
D12*
%TO.C,R40*%
X57150000Y-138160000D03*
X57150000Y-136160000D03*
%TD*%
D30*
%TO.C,C1*%
X44196000Y-54758500D03*
X44196000Y-52683500D03*
%TD*%
D10*
%TO.C,R53*%
X75866500Y-95377000D03*
X73866500Y-95377000D03*
%TD*%
D12*
%TO.C,R34*%
X57150000Y-126095000D03*
X57150000Y-124095000D03*
%TD*%
D15*
%TO.C,J1*%
X49667000Y-53721000D03*
D16*
X52207000Y-53721000D03*
X54747000Y-53721000D03*
X57287000Y-53721000D03*
%TD*%
D31*
%TO.C,J3*%
X162921000Y-89753500D03*
X162921000Y-101183500D03*
D32*
X156571000Y-99913500D03*
D33*
X154031000Y-98643500D03*
X156571000Y-97373500D03*
X154031000Y-96103500D03*
X156571000Y-94833500D03*
X154031000Y-93563500D03*
X156571000Y-92293500D03*
X154031000Y-91023500D03*
%TD*%
D34*
%TO.C,L1*%
X114173000Y-84831000D03*
X114173000Y-76205000D03*
%TD*%
D35*
%TO.C,Q3*%
X138618000Y-77040500D03*
X136718000Y-77040500D03*
X137668000Y-78915500D03*
%TD*%
D21*
%TO.C,C47*%
X103695500Y-132376000D03*
X103695500Y-134451000D03*
%TD*%
D12*
%TO.C,R37*%
X57150000Y-132191000D03*
X57150000Y-130191000D03*
%TD*%
D36*
%TO.C,U5*%
X124572500Y-105219500D03*
X124572500Y-106489500D03*
X124572500Y-107759500D03*
X124572500Y-109029500D03*
X124572500Y-110299500D03*
X124572500Y-111569500D03*
X124572500Y-112839500D03*
X124572500Y-114109500D03*
X124572500Y-115379500D03*
X124572500Y-116649500D03*
X124572500Y-117919500D03*
X124572500Y-119189500D03*
X133872500Y-119189500D03*
X133872500Y-117919500D03*
X133872500Y-116649500D03*
X133872500Y-115379500D03*
X133872500Y-114109500D03*
X133872500Y-112839500D03*
X133872500Y-111569500D03*
X133872500Y-110299500D03*
X133872500Y-109029500D03*
X133872500Y-107759500D03*
X133872500Y-106489500D03*
X133872500Y-105219500D03*
%TD*%
D10*
%TO.C,R31*%
X142732000Y-76754500D03*
X140732000Y-76754500D03*
%TD*%
D37*
%TO.C,U4*%
X78362500Y-88582500D03*
X78362500Y-89217500D03*
X78362500Y-89852500D03*
X78362500Y-90487500D03*
X78362500Y-91122500D03*
X78362500Y-91757500D03*
X78362500Y-92392500D03*
X78362500Y-93027500D03*
X83562500Y-93027500D03*
X83562500Y-92392500D03*
X83562500Y-91757500D03*
X83562500Y-91122500D03*
X83562500Y-90487500D03*
X83562500Y-89852500D03*
X83562500Y-89217500D03*
X83562500Y-88582500D03*
%TD*%
D12*
%TO.C,R21*%
X150749000Y-64881000D03*
X150749000Y-62881000D03*
%TD*%
D14*
%TO.C,Q7*%
X50975500Y-132141000D03*
X50975500Y-130241000D03*
X49100500Y-131191000D03*
%TD*%
D38*
%TO.C,U9*%
X135677000Y-85508500D03*
X136327000Y-85508500D03*
X136977000Y-85508500D03*
X137627000Y-85508500D03*
X137627000Y-81208500D03*
X136977000Y-81208500D03*
X136327000Y-81208500D03*
X135677000Y-81208500D03*
%TD*%
D12*
%TO.C,R29*%
X139700000Y-83215500D03*
X139700000Y-81215500D03*
%TD*%
D20*
%TO.C,REF\u002A\u002A*%
X97790000Y-108086500D03*
%TD*%
D27*
%TO.C,C33*%
X43582500Y-136271000D03*
X41507500Y-136271000D03*
%TD*%
D26*
%TO.C,D5*%
X37964000Y-67954500D03*
X40014000Y-67954500D03*
%TD*%
D20*
%TO.C,REF\u002A\u002A*%
X39790000Y-108086500D03*
%TD*%
D25*
%TO.C,R52*%
X73866500Y-93218000D03*
X75866500Y-93218000D03*
%TD*%
D19*
%TO.C,J10*%
X163917000Y-73609000D03*
X158917000Y-73609000D03*
X163917000Y-66599000D03*
X158917000Y-66599000D03*
%TD*%
D15*
%TO.C,J26*%
X147246500Y-111833500D03*
D16*
X147246500Y-114373500D03*
X147246500Y-116913500D03*
X147246500Y-119453500D03*
%TD*%
D14*
%TO.C,Q4*%
X55039500Y-126045000D03*
X55039500Y-124145000D03*
X53164500Y-125095000D03*
%TD*%
D39*
%TO.C,L2*%
X119724500Y-72517000D03*
X116749500Y-72517000D03*
%TD*%
D15*
%TO.C,J27*%
X164137500Y-111823500D03*
D16*
X164137500Y-114363500D03*
X164137500Y-116903500D03*
X164137500Y-119443500D03*
%TD*%
D19*
%TO.C,J23*%
X120345000Y-143470000D03*
X120345000Y-138470000D03*
X113335000Y-143470000D03*
X113335000Y-138470000D03*
%TD*%
D10*
%TO.C,R51*%
X75866500Y-97536000D03*
X73866500Y-97536000D03*
%TD*%
D21*
%TO.C,C37*%
X62103000Y-132334000D03*
X62103000Y-134409000D03*
%TD*%
D40*
%TO.C,R5*%
X146050000Y-54499000D03*
X146050000Y-56499000D03*
%TD*%
D10*
%TO.C,R2*%
X136509000Y-73152000D03*
X134509000Y-73152000D03*
%TD*%
D19*
%TO.C,J17*%
X88341000Y-138470000D03*
X88341000Y-143470000D03*
X81331000Y-143470000D03*
X81331000Y-138470000D03*
%TD*%
D23*
%TO.C,U12*%
X125461000Y-128388000D03*
X125461000Y-129038000D03*
X125461000Y-129688000D03*
X125461000Y-130338000D03*
X125461000Y-130988000D03*
X125461000Y-131638000D03*
X125461000Y-132288000D03*
X125461000Y-132938000D03*
X131011000Y-132938000D03*
X131011000Y-132288000D03*
X131011000Y-131638000D03*
X131011000Y-130988000D03*
X131011000Y-130338000D03*
X131011000Y-129688000D03*
X131011000Y-129038000D03*
X131011000Y-128388000D03*
D24*
X128236000Y-130663000D03*
%TD*%
D30*
%TO.C,C2*%
X46482000Y-54758500D03*
X46482000Y-52683500D03*
%TD*%
D14*
%TO.C,Q11*%
X50975500Y-144333000D03*
X50975500Y-142433000D03*
X49100500Y-143383000D03*
%TD*%
D41*
%TO.C,D3*%
X148200000Y-58919000D03*
X148200000Y-60969000D03*
%TD*%
D23*
%TO.C,U11*%
X86345000Y-129267000D03*
X86345000Y-129917000D03*
X86345000Y-130567000D03*
X86345000Y-131217000D03*
X86345000Y-131867000D03*
X86345000Y-132517000D03*
X86345000Y-133167000D03*
X86345000Y-133817000D03*
X91895000Y-133817000D03*
X91895000Y-133167000D03*
X91895000Y-132517000D03*
X91895000Y-131867000D03*
X91895000Y-131217000D03*
X91895000Y-130567000D03*
X91895000Y-129917000D03*
X91895000Y-129267000D03*
D24*
X89120000Y-131542000D03*
%TD*%
D19*
%TO.C,J4*%
X142440000Y-61417000D03*
X137440000Y-61417000D03*
X142440000Y-54407000D03*
X137440000Y-54407000D03*
%TD*%
%TO.C,J19*%
X91999000Y-138470000D03*
X91999000Y-143470000D03*
X99009000Y-138470000D03*
X99009000Y-143470000D03*
%TD*%
D10*
%TO.C,R33*%
X51038000Y-127889000D03*
X49038000Y-127889000D03*
%TD*%
D19*
%TO.C,J20*%
X130886000Y-138470000D03*
X130886000Y-143470000D03*
X123876000Y-138470000D03*
X123876000Y-143470000D03*
%TD*%
D42*
%TO.C,RV1*%
X48006000Y-92202000D03*
X45466000Y-92202000D03*
X42926000Y-92202000D03*
%TD*%
D40*
%TO.C,R28*%
X138303000Y-87773000D03*
X138303000Y-89773000D03*
%TD*%
D19*
%TO.C,J18*%
X70663000Y-138470000D03*
X70663000Y-143470000D03*
X77673000Y-143470000D03*
X77673000Y-138470000D03*
%TD*%
%TO.C,U3*%
X132492000Y-67192500D03*
X57492900Y-98193200D03*
X132491480Y-98193200D03*
X57492900Y-67192500D03*
D43*
X62992000Y-67192500D03*
D44*
X65532000Y-67192500D03*
X68072000Y-67192500D03*
X70612000Y-67192500D03*
X73152000Y-67192500D03*
X75692000Y-67192500D03*
X78232000Y-67192500D03*
X80772000Y-67192500D03*
X83312000Y-67192500D03*
X85852000Y-67192500D03*
X88392000Y-67192500D03*
X90932000Y-67192500D03*
X93472000Y-67192500D03*
X96012000Y-67192500D03*
X98552000Y-67192500D03*
X101092000Y-67192500D03*
%TD*%
D15*
%TO.C,J7*%
X65082500Y-114676000D03*
D16*
X65082500Y-117216000D03*
X62542500Y-114676000D03*
X62542500Y-117216000D03*
X60002500Y-114676000D03*
X60002500Y-117216000D03*
X57462500Y-114676000D03*
X57462500Y-117216000D03*
X54922500Y-114676000D03*
X54922500Y-117216000D03*
X52382500Y-114676000D03*
X52382500Y-117216000D03*
X49842500Y-114676000D03*
X49842500Y-117216000D03*
X47302500Y-114676000D03*
X47302500Y-117216000D03*
X44762500Y-114676000D03*
X44762500Y-117216000D03*
X42222500Y-114676000D03*
X42222500Y-117216000D03*
%TD*%
D21*
%TO.C,C40*%
X81851500Y-132439500D03*
X81851500Y-134514500D03*
%TD*%
%TO.C,C49*%
X135250000Y-127675000D03*
X135250000Y-129750000D03*
%TD*%
D15*
%TO.C,J14*%
X46213000Y-139192000D03*
D16*
X43673000Y-139192000D03*
X41133000Y-139192000D03*
%TD*%
D21*
%TO.C,C48*%
X101536500Y-132376000D03*
X101536500Y-134451000D03*
%TD*%
D25*
%TO.C,R7*%
X37989000Y-72653500D03*
X39989000Y-72653500D03*
%TD*%
D45*
%TO.C,U8*%
X143723000Y-81246000D03*
X143073000Y-81246000D03*
X142423000Y-81246000D03*
X141773000Y-81246000D03*
X141773000Y-85471000D03*
X142423000Y-85471000D03*
X143073000Y-85471000D03*
X143723000Y-85471000D03*
%TD*%
D27*
%TO.C,C38*%
X98037500Y-132000000D03*
X95962500Y-132000000D03*
%TD*%
D45*
%TO.C,U7*%
X148676000Y-64816500D03*
X148026000Y-64816500D03*
X147376000Y-64816500D03*
X146726000Y-64816500D03*
X146726000Y-69041500D03*
X147376000Y-69041500D03*
X148026000Y-69041500D03*
X148676000Y-69041500D03*
%TD*%
D46*
%TO.C,U6*%
X72575500Y-110075000D03*
X72575500Y-110725000D03*
X72575500Y-111375000D03*
X72575500Y-112025000D03*
X72575500Y-112675000D03*
X72575500Y-113325000D03*
X72575500Y-113975000D03*
X72575500Y-114625000D03*
X72575500Y-115275000D03*
X72575500Y-115925000D03*
X72575500Y-116575000D03*
X72575500Y-117225000D03*
X72575500Y-117875000D03*
X72575500Y-118525000D03*
X78300500Y-118525000D03*
X78300500Y-117875000D03*
X78300500Y-117225000D03*
X78300500Y-116575000D03*
X78300500Y-115925000D03*
X78300500Y-115275000D03*
X78300500Y-114625000D03*
X78300500Y-113975000D03*
X78300500Y-113325000D03*
X78300500Y-112675000D03*
X78300500Y-112025000D03*
X78300500Y-111375000D03*
X78300500Y-110725000D03*
X78300500Y-110075000D03*
%TD*%
D19*
%TO.C,S1*%
X123670000Y-57912000D03*
X128270000Y-57912000D03*
%TD*%
D21*
%TO.C,C29*%
X134620000Y-76860000D03*
X134620000Y-78935000D03*
%TD*%
D12*
%TO.C,R24*%
X144653000Y-66659000D03*
X144653000Y-64659000D03*
%TD*%
D47*
%TO.C,C11*%
X113667500Y-90678000D03*
X118742500Y-90678000D03*
%TD*%
D13*
%TO.C,C27*%
X146663500Y-71501000D03*
X148738500Y-71501000D03*
%TD*%
D25*
%TO.C,R8*%
X37961548Y-65795500D03*
X39961548Y-65795500D03*
%TD*%
D27*
%TO.C,C35*%
X79206000Y-132397500D03*
X77131000Y-132397500D03*
%TD*%
%TO.C,C32*%
X43582500Y-130175000D03*
X41507500Y-130175000D03*
%TD*%
D12*
%TO.C,R25*%
X140462000Y-89773000D03*
X140462000Y-87773000D03*
%TD*%
D21*
%TO.C,C44*%
X123253500Y-131296500D03*
X123253500Y-133371500D03*
%TD*%
%TO.C,C45*%
X121094500Y-131296500D03*
X121094500Y-133371500D03*
%TD*%
D25*
%TO.C,R22*%
X143526000Y-78867000D03*
X145526000Y-78867000D03*
%TD*%
D21*
%TO.C,C36*%
X64135000Y-132334000D03*
X64135000Y-134409000D03*
%TD*%
D25*
%TO.C,R35*%
X53102000Y-133985000D03*
X55102000Y-133985000D03*
%TD*%
D20*
%TO.C,REF\u002A\u002A*%
X97790000Y-59086500D03*
%TD*%
D40*
%TO.C,R6*%
X148082000Y-54499000D03*
X148082000Y-56499000D03*
%TD*%
D19*
%TO.C,J21*%
X102667000Y-138470000D03*
X102667000Y-143470000D03*
X109677000Y-138470000D03*
X109677000Y-143470000D03*
%TD*%
D14*
%TO.C,Q8*%
X55039500Y-137983000D03*
X55039500Y-136083000D03*
X53164500Y-137033000D03*
%TD*%
D10*
%TO.C,R36*%
X51038000Y-133985000D03*
X49038000Y-133985000D03*
%TD*%
D25*
%TO.C,R17*%
X81867500Y-112649000D03*
X83867500Y-112649000D03*
%TD*%
D19*
%TO.C,J24*%
X155905000Y-138470000D03*
X148895000Y-138470000D03*
X148895000Y-143470000D03*
X155905000Y-143470000D03*
%TD*%
D27*
%TO.C,C34*%
X43582500Y-142367000D03*
X41507500Y-142367000D03*
%TD*%
%TO.C,C43*%
X137287500Y-131712500D03*
X135212500Y-131712500D03*
%TD*%
D48*
%TO.C,D2*%
X145900000Y-60969000D03*
X145900000Y-58919000D03*
%TD*%
D30*
%TO.C,C15*%
X116840000Y-69490500D03*
X116840000Y-67415500D03*
%TD*%
D21*
%TO.C,C42*%
X96050000Y-127925000D03*
X96050000Y-130000000D03*
%TD*%
D10*
%TO.C,R26*%
X138668000Y-91821000D03*
X136668000Y-91821000D03*
%TD*%
D14*
%TO.C,Q5*%
X50975500Y-126045000D03*
X50975500Y-124145000D03*
X49100500Y-125095000D03*
%TD*%
%TO.C,Q9*%
X50975500Y-137983000D03*
X50975500Y-136083000D03*
X49100500Y-137033000D03*
%TD*%
D15*
%TO.C,J6*%
X57467500Y-119761000D03*
D16*
X60007500Y-119761000D03*
X62547500Y-119761000D03*
X65087500Y-119761000D03*
%TD*%
D19*
%TO.C,J28*%
X161595000Y-133945000D03*
X161595000Y-128945000D03*
X168605000Y-133945000D03*
X168605000Y-128945000D03*
%TD*%
D49*
%TO.C,S3*%
X44539000Y-70204500D03*
X52489000Y-70204500D03*
X52489000Y-65704500D03*
X44539000Y-65704500D03*
%TD*%
D25*
%TO.C,R32*%
X53102000Y-127889000D03*
X55102000Y-127889000D03*
%TD*%
D14*
%TO.C,Q6*%
X55039500Y-132141000D03*
X55039500Y-130241000D03*
X53164500Y-131191000D03*
%TD*%
D21*
%TO.C,C50*%
X115750000Y-128462500D03*
X115750000Y-130537500D03*
%TD*%
D15*
%TO.C,J2*%
X44635000Y-57811500D03*
D16*
X44635000Y-60351500D03*
X47175000Y-57811500D03*
X47175000Y-60351500D03*
X49715000Y-57811500D03*
X49715000Y-60351500D03*
X52255000Y-57811500D03*
X52255000Y-60351500D03*
X54795000Y-57811500D03*
X54795000Y-60351500D03*
X57335000Y-57811500D03*
X57335000Y-60351500D03*
X59875000Y-57811500D03*
X59875000Y-60351500D03*
X62415000Y-57811500D03*
X62415000Y-60351500D03*
X64955000Y-57811500D03*
X64955000Y-60351500D03*
X67495000Y-57811500D03*
X67495000Y-60351500D03*
X70035000Y-57811500D03*
X70035000Y-60351500D03*
X72575000Y-57811500D03*
X72575000Y-60351500D03*
X75115000Y-57811500D03*
X75115000Y-60351500D03*
X77655000Y-57811500D03*
X77655000Y-60351500D03*
X80195000Y-57811500D03*
X80195000Y-60351500D03*
X82735000Y-57811500D03*
X82735000Y-60351500D03*
X85275000Y-57811500D03*
X85275000Y-60351500D03*
X87815000Y-57811500D03*
X87815000Y-60351500D03*
X90355000Y-57811500D03*
X90355000Y-60351500D03*
X92895000Y-57811500D03*
X92895000Y-60351500D03*
%TD*%
D50*
%TO.C,A1*%
X151818500Y-106743500D03*
D51*
X151818500Y-109283500D03*
X151818500Y-111823500D03*
X151818500Y-114363500D03*
X151818500Y-116903500D03*
X151818500Y-119443500D03*
X151818500Y-121983500D03*
X151818500Y-124523500D03*
X139118500Y-124523500D03*
X139118500Y-121983500D03*
X139118500Y-119443500D03*
X139118500Y-116903500D03*
X139118500Y-114363500D03*
X139118500Y-111823500D03*
X139118500Y-109283500D03*
X139118500Y-106743500D03*
%TD*%
D50*
%TO.C,A2*%
X168709500Y-106743500D03*
D51*
X168709500Y-109283500D03*
X168709500Y-111823500D03*
X168709500Y-114363500D03*
X168709500Y-116903500D03*
X168709500Y-119443500D03*
X168709500Y-121983500D03*
X168709500Y-124523500D03*
X156009500Y-124523500D03*
X156009500Y-121983500D03*
X156009500Y-119443500D03*
X156009500Y-116903500D03*
X156009500Y-114363500D03*
X156009500Y-111823500D03*
X156009500Y-109283500D03*
X156009500Y-106743500D03*
%TD*%
M02*
