%TF.GenerationSoftware,KiCad,Pcbnew,(6.0.7)*%
%TF.CreationDate,2022-11-14T00:19:26-05:00*%
%TF.ProjectId,MASA_Rover_1.0,4d415341-5f52-46f7-9665-725f312e302e,rev?*%
%TF.SameCoordinates,Original*%
%TF.FileFunction,Legend,Bot*%
%TF.FilePolarity,Positive*%
%FSLAX46Y46*%
G04 Gerber Fmt 4.6, Leading zero omitted, Abs format (unit mm)*
G04 Created by KiCad (PCBNEW (6.0.7)) date 2022-11-14 00:19:26*
%MOMM*%
%LPD*%
G01*
G04 APERTURE LIST*
%ADD10C,0.150000*%
%ADD11C,0.120000*%
G04 APERTURE END LIST*
D10*
%TO.C,TP7*%
X83523904Y-124424380D02*
X82952476Y-124424380D01*
X83238190Y-125424380D02*
X83238190Y-124424380D01*
X82619142Y-125424380D02*
X82619142Y-124424380D01*
X82238190Y-124424380D01*
X82142952Y-124472000D01*
X82095333Y-124519619D01*
X82047714Y-124614857D01*
X82047714Y-124757714D01*
X82095333Y-124852952D01*
X82142952Y-124900571D01*
X82238190Y-124948190D01*
X82619142Y-124948190D01*
X81714380Y-124424380D02*
X81047714Y-124424380D01*
X81476285Y-125424380D01*
%TO.C,C19*%
X51242857Y-76857142D02*
X51290476Y-76904761D01*
X51433333Y-76952380D01*
X51528571Y-76952380D01*
X51671428Y-76904761D01*
X51766666Y-76809523D01*
X51814285Y-76714285D01*
X51861904Y-76523809D01*
X51861904Y-76380952D01*
X51814285Y-76190476D01*
X51766666Y-76095238D01*
X51671428Y-76000000D01*
X51528571Y-75952380D01*
X51433333Y-75952380D01*
X51290476Y-76000000D01*
X51242857Y-76047619D01*
X50290476Y-76952380D02*
X50861904Y-76952380D01*
X50576190Y-76952380D02*
X50576190Y-75952380D01*
X50671428Y-76095238D01*
X50766666Y-76190476D01*
X50861904Y-76238095D01*
X49814285Y-76952380D02*
X49623809Y-76952380D01*
X49528571Y-76904761D01*
X49480952Y-76857142D01*
X49385714Y-76714285D01*
X49338095Y-76523809D01*
X49338095Y-76142857D01*
X49385714Y-76047619D01*
X49433333Y-76000000D01*
X49528571Y-75952380D01*
X49719047Y-75952380D01*
X49814285Y-76000000D01*
X49861904Y-76047619D01*
X49909523Y-76142857D01*
X49909523Y-76380952D01*
X49861904Y-76476190D01*
X49814285Y-76523809D01*
X49719047Y-76571428D01*
X49528571Y-76571428D01*
X49433333Y-76523809D01*
X49385714Y-76476190D01*
X49338095Y-76380952D01*
%TO.C,C18*%
X50557142Y-85857142D02*
X50604761Y-85809523D01*
X50652380Y-85666666D01*
X50652380Y-85571428D01*
X50604761Y-85428571D01*
X50509523Y-85333333D01*
X50414285Y-85285714D01*
X50223809Y-85238095D01*
X50080952Y-85238095D01*
X49890476Y-85285714D01*
X49795238Y-85333333D01*
X49700000Y-85428571D01*
X49652380Y-85571428D01*
X49652380Y-85666666D01*
X49700000Y-85809523D01*
X49747619Y-85857142D01*
X50652380Y-86809523D02*
X50652380Y-86238095D01*
X50652380Y-86523809D02*
X49652380Y-86523809D01*
X49795238Y-86428571D01*
X49890476Y-86333333D01*
X49938095Y-86238095D01*
X50080952Y-87380952D02*
X50033333Y-87285714D01*
X49985714Y-87238095D01*
X49890476Y-87190476D01*
X49842857Y-87190476D01*
X49747619Y-87238095D01*
X49700000Y-87285714D01*
X49652380Y-87380952D01*
X49652380Y-87571428D01*
X49700000Y-87666666D01*
X49747619Y-87714285D01*
X49842857Y-87761904D01*
X49890476Y-87761904D01*
X49985714Y-87714285D01*
X50033333Y-87666666D01*
X50080952Y-87571428D01*
X50080952Y-87380952D01*
X50128571Y-87285714D01*
X50176190Y-87238095D01*
X50271428Y-87190476D01*
X50461904Y-87190476D01*
X50557142Y-87238095D01*
X50604761Y-87285714D01*
X50652380Y-87380952D01*
X50652380Y-87571428D01*
X50604761Y-87666666D01*
X50557142Y-87714285D01*
X50461904Y-87761904D01*
X50271428Y-87761904D01*
X50176190Y-87714285D01*
X50128571Y-87666666D01*
X50080952Y-87571428D01*
%TO.C,TP8*%
X122639904Y-123408380D02*
X122068476Y-123408380D01*
X122354190Y-124408380D02*
X122354190Y-123408380D01*
X121735142Y-124408380D02*
X121735142Y-123408380D01*
X121354190Y-123408380D01*
X121258952Y-123456000D01*
X121211333Y-123503619D01*
X121163714Y-123598857D01*
X121163714Y-123741714D01*
X121211333Y-123836952D01*
X121258952Y-123884571D01*
X121354190Y-123932190D01*
X121735142Y-123932190D01*
X120592285Y-123836952D02*
X120687523Y-123789333D01*
X120735142Y-123741714D01*
X120782761Y-123646476D01*
X120782761Y-123598857D01*
X120735142Y-123503619D01*
X120687523Y-123456000D01*
X120592285Y-123408380D01*
X120401809Y-123408380D01*
X120306571Y-123456000D01*
X120258952Y-123503619D01*
X120211333Y-123598857D01*
X120211333Y-123646476D01*
X120258952Y-123741714D01*
X120306571Y-123789333D01*
X120401809Y-123836952D01*
X120592285Y-123836952D01*
X120687523Y-123884571D01*
X120735142Y-123932190D01*
X120782761Y-124027428D01*
X120782761Y-124217904D01*
X120735142Y-124313142D01*
X120687523Y-124360761D01*
X120592285Y-124408380D01*
X120401809Y-124408380D01*
X120306571Y-124360761D01*
X120258952Y-124313142D01*
X120211333Y-124217904D01*
X120211333Y-124027428D01*
X120258952Y-123932190D01*
X120306571Y-123884571D01*
X120401809Y-123836952D01*
%TO.C,TP5*%
X119661904Y-64752380D02*
X119090476Y-64752380D01*
X119376190Y-65752380D02*
X119376190Y-64752380D01*
X118757142Y-65752380D02*
X118757142Y-64752380D01*
X118376190Y-64752380D01*
X118280952Y-64800000D01*
X118233333Y-64847619D01*
X118185714Y-64942857D01*
X118185714Y-65085714D01*
X118233333Y-65180952D01*
X118280952Y-65228571D01*
X118376190Y-65276190D01*
X118757142Y-65276190D01*
X117280952Y-64752380D02*
X117757142Y-64752380D01*
X117804761Y-65228571D01*
X117757142Y-65180952D01*
X117661904Y-65133333D01*
X117423809Y-65133333D01*
X117328571Y-65180952D01*
X117280952Y-65228571D01*
X117233333Y-65323809D01*
X117233333Y-65561904D01*
X117280952Y-65657142D01*
X117328571Y-65704761D01*
X117423809Y-65752380D01*
X117661904Y-65752380D01*
X117757142Y-65704761D01*
X117804761Y-65657142D01*
%TO.C,R47*%
X85342857Y-123752380D02*
X85676190Y-123276190D01*
X85914285Y-123752380D02*
X85914285Y-122752380D01*
X85533333Y-122752380D01*
X85438095Y-122800000D01*
X85390476Y-122847619D01*
X85342857Y-122942857D01*
X85342857Y-123085714D01*
X85390476Y-123180952D01*
X85438095Y-123228571D01*
X85533333Y-123276190D01*
X85914285Y-123276190D01*
X84485714Y-123085714D02*
X84485714Y-123752380D01*
X84723809Y-122704761D02*
X84961904Y-123419047D01*
X84342857Y-123419047D01*
X84057142Y-122752380D02*
X83390476Y-122752380D01*
X83819047Y-123752380D01*
%TO.C,C13*%
X122562857Y-79195142D02*
X122610476Y-79242761D01*
X122753333Y-79290380D01*
X122848571Y-79290380D01*
X122991428Y-79242761D01*
X123086666Y-79147523D01*
X123134285Y-79052285D01*
X123181904Y-78861809D01*
X123181904Y-78718952D01*
X123134285Y-78528476D01*
X123086666Y-78433238D01*
X122991428Y-78338000D01*
X122848571Y-78290380D01*
X122753333Y-78290380D01*
X122610476Y-78338000D01*
X122562857Y-78385619D01*
X121610476Y-79290380D02*
X122181904Y-79290380D01*
X121896190Y-79290380D02*
X121896190Y-78290380D01*
X121991428Y-78433238D01*
X122086666Y-78528476D01*
X122181904Y-78576095D01*
X121277142Y-78290380D02*
X120658095Y-78290380D01*
X120991428Y-78671333D01*
X120848571Y-78671333D01*
X120753333Y-78718952D01*
X120705714Y-78766571D01*
X120658095Y-78861809D01*
X120658095Y-79099904D01*
X120705714Y-79195142D01*
X120753333Y-79242761D01*
X120848571Y-79290380D01*
X121134285Y-79290380D01*
X121229523Y-79242761D01*
X121277142Y-79195142D01*
%TO.C,R14*%
X57952380Y-73398142D02*
X57476190Y-73064809D01*
X57952380Y-72826714D02*
X56952380Y-72826714D01*
X56952380Y-73207666D01*
X57000000Y-73302904D01*
X57047619Y-73350523D01*
X57142857Y-73398142D01*
X57285714Y-73398142D01*
X57380952Y-73350523D01*
X57428571Y-73302904D01*
X57476190Y-73207666D01*
X57476190Y-72826714D01*
X57952380Y-74350523D02*
X57952380Y-73779095D01*
X57952380Y-74064809D02*
X56952380Y-74064809D01*
X57095238Y-73969571D01*
X57190476Y-73874333D01*
X57238095Y-73779095D01*
X57285714Y-75207666D02*
X57952380Y-75207666D01*
X56904761Y-74969571D02*
X57619047Y-74731476D01*
X57619047Y-75350523D01*
%TO.C,R46*%
X65642857Y-123852380D02*
X65976190Y-123376190D01*
X66214285Y-123852380D02*
X66214285Y-122852380D01*
X65833333Y-122852380D01*
X65738095Y-122900000D01*
X65690476Y-122947619D01*
X65642857Y-123042857D01*
X65642857Y-123185714D01*
X65690476Y-123280952D01*
X65738095Y-123328571D01*
X65833333Y-123376190D01*
X66214285Y-123376190D01*
X64785714Y-123185714D02*
X64785714Y-123852380D01*
X65023809Y-122804761D02*
X65261904Y-123519047D01*
X64642857Y-123519047D01*
X63833333Y-122852380D02*
X64023809Y-122852380D01*
X64119047Y-122900000D01*
X64166666Y-122947619D01*
X64261904Y-123090476D01*
X64309523Y-123280952D01*
X64309523Y-123661904D01*
X64261904Y-123757142D01*
X64214285Y-123804761D01*
X64119047Y-123852380D01*
X63928571Y-123852380D01*
X63833333Y-123804761D01*
X63785714Y-123757142D01*
X63738095Y-123661904D01*
X63738095Y-123423809D01*
X63785714Y-123328571D01*
X63833333Y-123280952D01*
X63928571Y-123233333D01*
X64119047Y-123233333D01*
X64214285Y-123280952D01*
X64261904Y-123328571D01*
X64309523Y-123423809D01*
%TO.C,R4*%
X119292666Y-56714380D02*
X119626000Y-56238190D01*
X119864095Y-56714380D02*
X119864095Y-55714380D01*
X119483142Y-55714380D01*
X119387904Y-55762000D01*
X119340285Y-55809619D01*
X119292666Y-55904857D01*
X119292666Y-56047714D01*
X119340285Y-56142952D01*
X119387904Y-56190571D01*
X119483142Y-56238190D01*
X119864095Y-56238190D01*
X118435523Y-56047714D02*
X118435523Y-56714380D01*
X118673619Y-55666761D02*
X118911714Y-56381047D01*
X118292666Y-56381047D01*
%TO.C,C25*%
X79242857Y-104157142D02*
X79290476Y-104204761D01*
X79433333Y-104252380D01*
X79528571Y-104252380D01*
X79671428Y-104204761D01*
X79766666Y-104109523D01*
X79814285Y-104014285D01*
X79861904Y-103823809D01*
X79861904Y-103680952D01*
X79814285Y-103490476D01*
X79766666Y-103395238D01*
X79671428Y-103300000D01*
X79528571Y-103252380D01*
X79433333Y-103252380D01*
X79290476Y-103300000D01*
X79242857Y-103347619D01*
X78861904Y-103347619D02*
X78814285Y-103300000D01*
X78719047Y-103252380D01*
X78480952Y-103252380D01*
X78385714Y-103300000D01*
X78338095Y-103347619D01*
X78290476Y-103442857D01*
X78290476Y-103538095D01*
X78338095Y-103680952D01*
X78909523Y-104252380D01*
X78290476Y-104252380D01*
X77385714Y-103252380D02*
X77861904Y-103252380D01*
X77909523Y-103728571D01*
X77861904Y-103680952D01*
X77766666Y-103633333D01*
X77528571Y-103633333D01*
X77433333Y-103680952D01*
X77385714Y-103728571D01*
X77338095Y-103823809D01*
X77338095Y-104061904D01*
X77385714Y-104157142D01*
X77433333Y-104204761D01*
X77528571Y-104252380D01*
X77766666Y-104252380D01*
X77861904Y-104204761D01*
X77909523Y-104157142D01*
%TO.C,R23*%
X153869380Y-67667142D02*
X153393190Y-67333809D01*
X153869380Y-67095714D02*
X152869380Y-67095714D01*
X152869380Y-67476666D01*
X152917000Y-67571904D01*
X152964619Y-67619523D01*
X153059857Y-67667142D01*
X153202714Y-67667142D01*
X153297952Y-67619523D01*
X153345571Y-67571904D01*
X153393190Y-67476666D01*
X153393190Y-67095714D01*
X152964619Y-68048095D02*
X152917000Y-68095714D01*
X152869380Y-68190952D01*
X152869380Y-68429047D01*
X152917000Y-68524285D01*
X152964619Y-68571904D01*
X153059857Y-68619523D01*
X153155095Y-68619523D01*
X153297952Y-68571904D01*
X153869380Y-68000476D01*
X153869380Y-68619523D01*
X152869380Y-68952857D02*
X152869380Y-69571904D01*
X153250333Y-69238571D01*
X153250333Y-69381428D01*
X153297952Y-69476666D01*
X153345571Y-69524285D01*
X153440809Y-69571904D01*
X153678904Y-69571904D01*
X153774142Y-69524285D01*
X153821761Y-69476666D01*
X153869380Y-69381428D01*
X153869380Y-69095714D01*
X153821761Y-69000476D01*
X153774142Y-68952857D01*
%TO.C,JP6*%
X91533333Y-122352380D02*
X91533333Y-123066666D01*
X91580952Y-123209523D01*
X91676190Y-123304761D01*
X91819047Y-123352380D01*
X91914285Y-123352380D01*
X91057142Y-123352380D02*
X91057142Y-122352380D01*
X90676190Y-122352380D01*
X90580952Y-122400000D01*
X90533333Y-122447619D01*
X90485714Y-122542857D01*
X90485714Y-122685714D01*
X90533333Y-122780952D01*
X90580952Y-122828571D01*
X90676190Y-122876190D01*
X91057142Y-122876190D01*
X89628571Y-122352380D02*
X89819047Y-122352380D01*
X89914285Y-122400000D01*
X89961904Y-122447619D01*
X90057142Y-122590476D01*
X90104761Y-122780952D01*
X90104761Y-123161904D01*
X90057142Y-123257142D01*
X90009523Y-123304761D01*
X89914285Y-123352380D01*
X89723809Y-123352380D01*
X89628571Y-123304761D01*
X89580952Y-123257142D01*
X89533333Y-123161904D01*
X89533333Y-122923809D01*
X89580952Y-122828571D01*
X89628571Y-122780952D01*
X89723809Y-122733333D01*
X89914285Y-122733333D01*
X90009523Y-122780952D01*
X90057142Y-122828571D01*
X90104761Y-122923809D01*
%TO.C,JP2*%
X76733333Y-109052380D02*
X76733333Y-109766666D01*
X76780952Y-109909523D01*
X76876190Y-110004761D01*
X77019047Y-110052380D01*
X77114285Y-110052380D01*
X76257142Y-110052380D02*
X76257142Y-109052380D01*
X75876190Y-109052380D01*
X75780952Y-109100000D01*
X75733333Y-109147619D01*
X75685714Y-109242857D01*
X75685714Y-109385714D01*
X75733333Y-109480952D01*
X75780952Y-109528571D01*
X75876190Y-109576190D01*
X76257142Y-109576190D01*
X75304761Y-109147619D02*
X75257142Y-109100000D01*
X75161904Y-109052380D01*
X74923809Y-109052380D01*
X74828571Y-109100000D01*
X74780952Y-109147619D01*
X74733333Y-109242857D01*
X74733333Y-109338095D01*
X74780952Y-109480952D01*
X75352380Y-110052380D01*
X74733333Y-110052380D01*
%TO.C,R9*%
X48552380Y-85933333D02*
X48076190Y-85600000D01*
X48552380Y-85361904D02*
X47552380Y-85361904D01*
X47552380Y-85742857D01*
X47600000Y-85838095D01*
X47647619Y-85885714D01*
X47742857Y-85933333D01*
X47885714Y-85933333D01*
X47980952Y-85885714D01*
X48028571Y-85838095D01*
X48076190Y-85742857D01*
X48076190Y-85361904D01*
X48552380Y-86409523D02*
X48552380Y-86600000D01*
X48504761Y-86695238D01*
X48457142Y-86742857D01*
X48314285Y-86838095D01*
X48123809Y-86885714D01*
X47742857Y-86885714D01*
X47647619Y-86838095D01*
X47600000Y-86790476D01*
X47552380Y-86695238D01*
X47552380Y-86504761D01*
X47600000Y-86409523D01*
X47647619Y-86361904D01*
X47742857Y-86314285D01*
X47980952Y-86314285D01*
X48076190Y-86361904D01*
X48123809Y-86409523D01*
X48171428Y-86504761D01*
X48171428Y-86695238D01*
X48123809Y-86790476D01*
X48076190Y-86838095D01*
X47980952Y-86885714D01*
%TO.C,R49*%
X105242857Y-123852380D02*
X105576190Y-123376190D01*
X105814285Y-123852380D02*
X105814285Y-122852380D01*
X105433333Y-122852380D01*
X105338095Y-122900000D01*
X105290476Y-122947619D01*
X105242857Y-123042857D01*
X105242857Y-123185714D01*
X105290476Y-123280952D01*
X105338095Y-123328571D01*
X105433333Y-123376190D01*
X105814285Y-123376190D01*
X104385714Y-123185714D02*
X104385714Y-123852380D01*
X104623809Y-122804761D02*
X104861904Y-123519047D01*
X104242857Y-123519047D01*
X103814285Y-123852380D02*
X103623809Y-123852380D01*
X103528571Y-123804761D01*
X103480952Y-123757142D01*
X103385714Y-123614285D01*
X103338095Y-123423809D01*
X103338095Y-123042857D01*
X103385714Y-122947619D01*
X103433333Y-122900000D01*
X103528571Y-122852380D01*
X103719047Y-122852380D01*
X103814285Y-122900000D01*
X103861904Y-122947619D01*
X103909523Y-123042857D01*
X103909523Y-123280952D01*
X103861904Y-123376190D01*
X103814285Y-123423809D01*
X103719047Y-123471428D01*
X103528571Y-123471428D01*
X103433333Y-123423809D01*
X103385714Y-123376190D01*
X103338095Y-123280952D01*
%TO.C,TP4*%
X123181904Y-84762380D02*
X122610476Y-84762380D01*
X122896190Y-85762380D02*
X122896190Y-84762380D01*
X122277142Y-85762380D02*
X122277142Y-84762380D01*
X121896190Y-84762380D01*
X121800952Y-84810000D01*
X121753333Y-84857619D01*
X121705714Y-84952857D01*
X121705714Y-85095714D01*
X121753333Y-85190952D01*
X121800952Y-85238571D01*
X121896190Y-85286190D01*
X122277142Y-85286190D01*
X120848571Y-85095714D02*
X120848571Y-85762380D01*
X121086666Y-84714761D02*
X121324761Y-85429047D01*
X120705714Y-85429047D01*
%TO.C,R13*%
X48522880Y-73398142D02*
X48046690Y-73064809D01*
X48522880Y-72826714D02*
X47522880Y-72826714D01*
X47522880Y-73207666D01*
X47570500Y-73302904D01*
X47618119Y-73350523D01*
X47713357Y-73398142D01*
X47856214Y-73398142D01*
X47951452Y-73350523D01*
X47999071Y-73302904D01*
X48046690Y-73207666D01*
X48046690Y-72826714D01*
X48522880Y-74350523D02*
X48522880Y-73779095D01*
X48522880Y-74064809D02*
X47522880Y-74064809D01*
X47665738Y-73969571D01*
X47760976Y-73874333D01*
X47808595Y-73779095D01*
X47522880Y-74683857D02*
X47522880Y-75302904D01*
X47903833Y-74969571D01*
X47903833Y-75112428D01*
X47951452Y-75207666D01*
X47999071Y-75255285D01*
X48094309Y-75302904D01*
X48332404Y-75302904D01*
X48427642Y-75255285D01*
X48475261Y-75207666D01*
X48522880Y-75112428D01*
X48522880Y-74826714D01*
X48475261Y-74731476D01*
X48427642Y-74683857D01*
%TO.C,C14*%
X117842857Y-70057142D02*
X117890476Y-70104761D01*
X118033333Y-70152380D01*
X118128571Y-70152380D01*
X118271428Y-70104761D01*
X118366666Y-70009523D01*
X118414285Y-69914285D01*
X118461904Y-69723809D01*
X118461904Y-69580952D01*
X118414285Y-69390476D01*
X118366666Y-69295238D01*
X118271428Y-69200000D01*
X118128571Y-69152380D01*
X118033333Y-69152380D01*
X117890476Y-69200000D01*
X117842857Y-69247619D01*
X116890476Y-70152380D02*
X117461904Y-70152380D01*
X117176190Y-70152380D02*
X117176190Y-69152380D01*
X117271428Y-69295238D01*
X117366666Y-69390476D01*
X117461904Y-69438095D01*
X116033333Y-69485714D02*
X116033333Y-70152380D01*
X116271428Y-69104761D02*
X116509523Y-69819047D01*
X115890476Y-69819047D01*
%TO.C,JP4*%
X111352380Y-114466666D02*
X112066666Y-114466666D01*
X112209523Y-114419047D01*
X112304761Y-114323809D01*
X112352380Y-114180952D01*
X112352380Y-114085714D01*
X112352380Y-114942857D02*
X111352380Y-114942857D01*
X111352380Y-115323809D01*
X111400000Y-115419047D01*
X111447619Y-115466666D01*
X111542857Y-115514285D01*
X111685714Y-115514285D01*
X111780952Y-115466666D01*
X111828571Y-115419047D01*
X111876190Y-115323809D01*
X111876190Y-114942857D01*
X111685714Y-116371428D02*
X112352380Y-116371428D01*
X111304761Y-116133333D02*
X112019047Y-115895238D01*
X112019047Y-116514285D01*
%TO.C,R15*%
X151771880Y-93845142D02*
X151295690Y-93511809D01*
X151771880Y-93273714D02*
X150771880Y-93273714D01*
X150771880Y-93654666D01*
X150819500Y-93749904D01*
X150867119Y-93797523D01*
X150962357Y-93845142D01*
X151105214Y-93845142D01*
X151200452Y-93797523D01*
X151248071Y-93749904D01*
X151295690Y-93654666D01*
X151295690Y-93273714D01*
X151771880Y-94797523D02*
X151771880Y-94226095D01*
X151771880Y-94511809D02*
X150771880Y-94511809D01*
X150914738Y-94416571D01*
X151009976Y-94321333D01*
X151057595Y-94226095D01*
X150771880Y-95702285D02*
X150771880Y-95226095D01*
X151248071Y-95178476D01*
X151200452Y-95226095D01*
X151152833Y-95321333D01*
X151152833Y-95559428D01*
X151200452Y-95654666D01*
X151248071Y-95702285D01*
X151343309Y-95749904D01*
X151581404Y-95749904D01*
X151676642Y-95702285D01*
X151724261Y-95654666D01*
X151771880Y-95559428D01*
X151771880Y-95321333D01*
X151724261Y-95226095D01*
X151676642Y-95178476D01*
%TO.C,C7*%
X128566666Y-67357142D02*
X128614285Y-67404761D01*
X128757142Y-67452380D01*
X128852380Y-67452380D01*
X128995238Y-67404761D01*
X129090476Y-67309523D01*
X129138095Y-67214285D01*
X129185714Y-67023809D01*
X129185714Y-66880952D01*
X129138095Y-66690476D01*
X129090476Y-66595238D01*
X128995238Y-66500000D01*
X128852380Y-66452380D01*
X128757142Y-66452380D01*
X128614285Y-66500000D01*
X128566666Y-66547619D01*
X128233333Y-66452380D02*
X127566666Y-66452380D01*
X127995238Y-67452380D01*
%TO.C,JP10*%
X109952380Y-120290476D02*
X110666666Y-120290476D01*
X110809523Y-120242857D01*
X110904761Y-120147619D01*
X110952380Y-120004761D01*
X110952380Y-119909523D01*
X110952380Y-120766666D02*
X109952380Y-120766666D01*
X109952380Y-121147619D01*
X110000000Y-121242857D01*
X110047619Y-121290476D01*
X110142857Y-121338095D01*
X110285714Y-121338095D01*
X110380952Y-121290476D01*
X110428571Y-121242857D01*
X110476190Y-121147619D01*
X110476190Y-120766666D01*
X110952380Y-122290476D02*
X110952380Y-121719047D01*
X110952380Y-122004761D02*
X109952380Y-122004761D01*
X110095238Y-121909523D01*
X110190476Y-121814285D01*
X110238095Y-121719047D01*
X109952380Y-122909523D02*
X109952380Y-123004761D01*
X110000000Y-123100000D01*
X110047619Y-123147619D01*
X110142857Y-123195238D01*
X110333333Y-123242857D01*
X110571428Y-123242857D01*
X110761904Y-123195238D01*
X110857142Y-123147619D01*
X110904761Y-123100000D01*
X110952380Y-123004761D01*
X110952380Y-122909523D01*
X110904761Y-122814285D01*
X110857142Y-122766666D01*
X110761904Y-122719047D01*
X110571428Y-122671428D01*
X110333333Y-122671428D01*
X110142857Y-122719047D01*
X110047619Y-122766666D01*
X110000000Y-122814285D01*
X109952380Y-122909523D01*
%TO.C,J2*%
X41757380Y-58748166D02*
X42471666Y-58748166D01*
X42614523Y-58700547D01*
X42709761Y-58605309D01*
X42757380Y-58462452D01*
X42757380Y-58367214D01*
X41852619Y-59176738D02*
X41805000Y-59224357D01*
X41757380Y-59319595D01*
X41757380Y-59557690D01*
X41805000Y-59652928D01*
X41852619Y-59700547D01*
X41947857Y-59748166D01*
X42043095Y-59748166D01*
X42185952Y-59700547D01*
X42757380Y-59129119D01*
X42757380Y-59748166D01*
%TO.C,C23*%
X85842857Y-105757142D02*
X85890476Y-105804761D01*
X86033333Y-105852380D01*
X86128571Y-105852380D01*
X86271428Y-105804761D01*
X86366666Y-105709523D01*
X86414285Y-105614285D01*
X86461904Y-105423809D01*
X86461904Y-105280952D01*
X86414285Y-105090476D01*
X86366666Y-104995238D01*
X86271428Y-104900000D01*
X86128571Y-104852380D01*
X86033333Y-104852380D01*
X85890476Y-104900000D01*
X85842857Y-104947619D01*
X85461904Y-104947619D02*
X85414285Y-104900000D01*
X85319047Y-104852380D01*
X85080952Y-104852380D01*
X84985714Y-104900000D01*
X84938095Y-104947619D01*
X84890476Y-105042857D01*
X84890476Y-105138095D01*
X84938095Y-105280952D01*
X85509523Y-105852380D01*
X84890476Y-105852380D01*
X84557142Y-104852380D02*
X83938095Y-104852380D01*
X84271428Y-105233333D01*
X84128571Y-105233333D01*
X84033333Y-105280952D01*
X83985714Y-105328571D01*
X83938095Y-105423809D01*
X83938095Y-105661904D01*
X83985714Y-105757142D01*
X84033333Y-105804761D01*
X84128571Y-105852380D01*
X84414285Y-105852380D01*
X84509523Y-105804761D01*
X84557142Y-105757142D01*
%TO.C,U2*%
X121061904Y-71252380D02*
X121061904Y-72061904D01*
X121014285Y-72157142D01*
X120966666Y-72204761D01*
X120871428Y-72252380D01*
X120680952Y-72252380D01*
X120585714Y-72204761D01*
X120538095Y-72157142D01*
X120490476Y-72061904D01*
X120490476Y-71252380D01*
X120061904Y-71347619D02*
X120014285Y-71300000D01*
X119919047Y-71252380D01*
X119680952Y-71252380D01*
X119585714Y-71300000D01*
X119538095Y-71347619D01*
X119490476Y-71442857D01*
X119490476Y-71538095D01*
X119538095Y-71680952D01*
X120109523Y-72252380D01*
X119490476Y-72252380D01*
%TO.C,TP2*%
X40652380Y-67962595D02*
X40652380Y-68534023D01*
X41652380Y-68248309D02*
X40652380Y-68248309D01*
X41652380Y-68867357D02*
X40652380Y-68867357D01*
X40652380Y-69248309D01*
X40700000Y-69343547D01*
X40747619Y-69391166D01*
X40842857Y-69438785D01*
X40985714Y-69438785D01*
X41080952Y-69391166D01*
X41128571Y-69343547D01*
X41176190Y-69248309D01*
X41176190Y-68867357D01*
X40747619Y-69819738D02*
X40700000Y-69867357D01*
X40652380Y-69962595D01*
X40652380Y-70200690D01*
X40700000Y-70295928D01*
X40747619Y-70343547D01*
X40842857Y-70391166D01*
X40938095Y-70391166D01*
X41080952Y-70343547D01*
X41652380Y-69772119D01*
X41652380Y-70391166D01*
%TO.C,JP5*%
X71633333Y-122352380D02*
X71633333Y-123066666D01*
X71680952Y-123209523D01*
X71776190Y-123304761D01*
X71919047Y-123352380D01*
X72014285Y-123352380D01*
X71157142Y-123352380D02*
X71157142Y-122352380D01*
X70776190Y-122352380D01*
X70680952Y-122400000D01*
X70633333Y-122447619D01*
X70585714Y-122542857D01*
X70585714Y-122685714D01*
X70633333Y-122780952D01*
X70680952Y-122828571D01*
X70776190Y-122876190D01*
X71157142Y-122876190D01*
X69680952Y-122352380D02*
X70157142Y-122352380D01*
X70204761Y-122828571D01*
X70157142Y-122780952D01*
X70061904Y-122733333D01*
X69823809Y-122733333D01*
X69728571Y-122780952D01*
X69680952Y-122828571D01*
X69633333Y-122923809D01*
X69633333Y-123161904D01*
X69680952Y-123257142D01*
X69728571Y-123304761D01*
X69823809Y-123352380D01*
X70061904Y-123352380D01*
X70157142Y-123304761D01*
X70204761Y-123257142D01*
%TO.C,TP9*%
X103335904Y-124424380D02*
X102764476Y-124424380D01*
X103050190Y-125424380D02*
X103050190Y-124424380D01*
X102431142Y-125424380D02*
X102431142Y-124424380D01*
X102050190Y-124424380D01*
X101954952Y-124472000D01*
X101907333Y-124519619D01*
X101859714Y-124614857D01*
X101859714Y-124757714D01*
X101907333Y-124852952D01*
X101954952Y-124900571D01*
X102050190Y-124948190D01*
X102431142Y-124948190D01*
X101383523Y-125424380D02*
X101193047Y-125424380D01*
X101097809Y-125376761D01*
X101050190Y-125329142D01*
X100954952Y-125186285D01*
X100907333Y-124995809D01*
X100907333Y-124614857D01*
X100954952Y-124519619D01*
X101002571Y-124472000D01*
X101097809Y-124424380D01*
X101288285Y-124424380D01*
X101383523Y-124472000D01*
X101431142Y-124519619D01*
X101478761Y-124614857D01*
X101478761Y-124852952D01*
X101431142Y-124948190D01*
X101383523Y-124995809D01*
X101288285Y-125043428D01*
X101097809Y-125043428D01*
X101002571Y-124995809D01*
X100954952Y-124948190D01*
X100907333Y-124852952D01*
%TO.C,C26*%
X117342857Y-117757142D02*
X117390476Y-117804761D01*
X117533333Y-117852380D01*
X117628571Y-117852380D01*
X117771428Y-117804761D01*
X117866666Y-117709523D01*
X117914285Y-117614285D01*
X117961904Y-117423809D01*
X117961904Y-117280952D01*
X117914285Y-117090476D01*
X117866666Y-116995238D01*
X117771428Y-116900000D01*
X117628571Y-116852380D01*
X117533333Y-116852380D01*
X117390476Y-116900000D01*
X117342857Y-116947619D01*
X116961904Y-116947619D02*
X116914285Y-116900000D01*
X116819047Y-116852380D01*
X116580952Y-116852380D01*
X116485714Y-116900000D01*
X116438095Y-116947619D01*
X116390476Y-117042857D01*
X116390476Y-117138095D01*
X116438095Y-117280952D01*
X117009523Y-117852380D01*
X116390476Y-117852380D01*
X115533333Y-116852380D02*
X115723809Y-116852380D01*
X115819047Y-116900000D01*
X115866666Y-116947619D01*
X115961904Y-117090476D01*
X116009523Y-117280952D01*
X116009523Y-117661904D01*
X115961904Y-117757142D01*
X115914285Y-117804761D01*
X115819047Y-117852380D01*
X115628571Y-117852380D01*
X115533333Y-117804761D01*
X115485714Y-117757142D01*
X115438095Y-117661904D01*
X115438095Y-117423809D01*
X115485714Y-117328571D01*
X115533333Y-117280952D01*
X115628571Y-117233333D01*
X115819047Y-117233333D01*
X115914285Y-117280952D01*
X115961904Y-117328571D01*
X116009523Y-117423809D01*
%TO.C,JP7*%
X68633333Y-122352380D02*
X68633333Y-123066666D01*
X68680952Y-123209523D01*
X68776190Y-123304761D01*
X68919047Y-123352380D01*
X69014285Y-123352380D01*
X68157142Y-123352380D02*
X68157142Y-122352380D01*
X67776190Y-122352380D01*
X67680952Y-122400000D01*
X67633333Y-122447619D01*
X67585714Y-122542857D01*
X67585714Y-122685714D01*
X67633333Y-122780952D01*
X67680952Y-122828571D01*
X67776190Y-122876190D01*
X68157142Y-122876190D01*
X67252380Y-122352380D02*
X66585714Y-122352380D01*
X67014285Y-123352380D01*
%TO.C,TP1*%
X40123904Y-74352380D02*
X39552476Y-74352380D01*
X39838190Y-75352380D02*
X39838190Y-74352380D01*
X39219142Y-75352380D02*
X39219142Y-74352380D01*
X38838190Y-74352380D01*
X38742952Y-74400000D01*
X38695333Y-74447619D01*
X38647714Y-74542857D01*
X38647714Y-74685714D01*
X38695333Y-74780952D01*
X38742952Y-74828571D01*
X38838190Y-74876190D01*
X39219142Y-74876190D01*
X37695333Y-75352380D02*
X38266761Y-75352380D01*
X37981047Y-75352380D02*
X37981047Y-74352380D01*
X38076285Y-74495238D01*
X38171523Y-74590476D01*
X38266761Y-74638095D01*
%TO.C,R20*%
X153869380Y-63730142D02*
X153393190Y-63396809D01*
X153869380Y-63158714D02*
X152869380Y-63158714D01*
X152869380Y-63539666D01*
X152917000Y-63634904D01*
X152964619Y-63682523D01*
X153059857Y-63730142D01*
X153202714Y-63730142D01*
X153297952Y-63682523D01*
X153345571Y-63634904D01*
X153393190Y-63539666D01*
X153393190Y-63158714D01*
X152964619Y-64111095D02*
X152917000Y-64158714D01*
X152869380Y-64253952D01*
X152869380Y-64492047D01*
X152917000Y-64587285D01*
X152964619Y-64634904D01*
X153059857Y-64682523D01*
X153155095Y-64682523D01*
X153297952Y-64634904D01*
X153869380Y-64063476D01*
X153869380Y-64682523D01*
X152869380Y-65301571D02*
X152869380Y-65396809D01*
X152917000Y-65492047D01*
X152964619Y-65539666D01*
X153059857Y-65587285D01*
X153250333Y-65634904D01*
X153488428Y-65634904D01*
X153678904Y-65587285D01*
X153774142Y-65539666D01*
X153821761Y-65492047D01*
X153869380Y-65396809D01*
X153869380Y-65301571D01*
X153821761Y-65206333D01*
X153774142Y-65158714D01*
X153678904Y-65111095D01*
X153488428Y-65063476D01*
X153250333Y-65063476D01*
X153059857Y-65111095D01*
X152964619Y-65158714D01*
X152917000Y-65206333D01*
X152869380Y-65301571D01*
%TO.C,C5*%
X131657142Y-57733333D02*
X131704761Y-57685714D01*
X131752380Y-57542857D01*
X131752380Y-57447619D01*
X131704761Y-57304761D01*
X131609523Y-57209523D01*
X131514285Y-57161904D01*
X131323809Y-57114285D01*
X131180952Y-57114285D01*
X130990476Y-57161904D01*
X130895238Y-57209523D01*
X130800000Y-57304761D01*
X130752380Y-57447619D01*
X130752380Y-57542857D01*
X130800000Y-57685714D01*
X130847619Y-57733333D01*
X130752380Y-58638095D02*
X130752380Y-58161904D01*
X131228571Y-58114285D01*
X131180952Y-58161904D01*
X131133333Y-58257142D01*
X131133333Y-58495238D01*
X131180952Y-58590476D01*
X131228571Y-58638095D01*
X131323809Y-58685714D01*
X131561904Y-58685714D01*
X131657142Y-58638095D01*
X131704761Y-58590476D01*
X131752380Y-58495238D01*
X131752380Y-58257142D01*
X131704761Y-58161904D01*
X131657142Y-58114285D01*
%TO.C,R12*%
X40585380Y-76827142D02*
X40109190Y-76493809D01*
X40585380Y-76255714D02*
X39585380Y-76255714D01*
X39585380Y-76636666D01*
X39633000Y-76731904D01*
X39680619Y-76779523D01*
X39775857Y-76827142D01*
X39918714Y-76827142D01*
X40013952Y-76779523D01*
X40061571Y-76731904D01*
X40109190Y-76636666D01*
X40109190Y-76255714D01*
X40585380Y-77779523D02*
X40585380Y-77208095D01*
X40585380Y-77493809D02*
X39585380Y-77493809D01*
X39728238Y-77398571D01*
X39823476Y-77303333D01*
X39871095Y-77208095D01*
X39680619Y-78160476D02*
X39633000Y-78208095D01*
X39585380Y-78303333D01*
X39585380Y-78541428D01*
X39633000Y-78636666D01*
X39680619Y-78684285D01*
X39775857Y-78731904D01*
X39871095Y-78731904D01*
X40013952Y-78684285D01*
X40585380Y-78112857D01*
X40585380Y-78731904D01*
%TO.C,C9*%
X126150666Y-79257142D02*
X126198285Y-79304761D01*
X126341142Y-79352380D01*
X126436380Y-79352380D01*
X126579238Y-79304761D01*
X126674476Y-79209523D01*
X126722095Y-79114285D01*
X126769714Y-78923809D01*
X126769714Y-78780952D01*
X126722095Y-78590476D01*
X126674476Y-78495238D01*
X126579238Y-78400000D01*
X126436380Y-78352380D01*
X126341142Y-78352380D01*
X126198285Y-78400000D01*
X126150666Y-78447619D01*
X125674476Y-79352380D02*
X125484000Y-79352380D01*
X125388761Y-79304761D01*
X125341142Y-79257142D01*
X125245904Y-79114285D01*
X125198285Y-78923809D01*
X125198285Y-78542857D01*
X125245904Y-78447619D01*
X125293523Y-78400000D01*
X125388761Y-78352380D01*
X125579238Y-78352380D01*
X125674476Y-78400000D01*
X125722095Y-78447619D01*
X125769714Y-78542857D01*
X125769714Y-78780952D01*
X125722095Y-78876190D01*
X125674476Y-78923809D01*
X125579238Y-78971428D01*
X125388761Y-78971428D01*
X125293523Y-78923809D01*
X125245904Y-78876190D01*
X125198285Y-78780952D01*
%TO.C,C4*%
X49066666Y-66357142D02*
X49114285Y-66404761D01*
X49257142Y-66452380D01*
X49352380Y-66452380D01*
X49495238Y-66404761D01*
X49590476Y-66309523D01*
X49638095Y-66214285D01*
X49685714Y-66023809D01*
X49685714Y-65880952D01*
X49638095Y-65690476D01*
X49590476Y-65595238D01*
X49495238Y-65500000D01*
X49352380Y-65452380D01*
X49257142Y-65452380D01*
X49114285Y-65500000D01*
X49066666Y-65547619D01*
X48209523Y-65785714D02*
X48209523Y-66452380D01*
X48447619Y-65404761D02*
X48685714Y-66119047D01*
X48066666Y-66119047D01*
%TO.C,C20*%
X56357142Y-73398142D02*
X56404761Y-73350523D01*
X56452380Y-73207666D01*
X56452380Y-73112428D01*
X56404761Y-72969571D01*
X56309523Y-72874333D01*
X56214285Y-72826714D01*
X56023809Y-72779095D01*
X55880952Y-72779095D01*
X55690476Y-72826714D01*
X55595238Y-72874333D01*
X55500000Y-72969571D01*
X55452380Y-73112428D01*
X55452380Y-73207666D01*
X55500000Y-73350523D01*
X55547619Y-73398142D01*
X55547619Y-73779095D02*
X55500000Y-73826714D01*
X55452380Y-73921952D01*
X55452380Y-74160047D01*
X55500000Y-74255285D01*
X55547619Y-74302904D01*
X55642857Y-74350523D01*
X55738095Y-74350523D01*
X55880952Y-74302904D01*
X56452380Y-73731476D01*
X56452380Y-74350523D01*
X55452380Y-74969571D02*
X55452380Y-75064809D01*
X55500000Y-75160047D01*
X55547619Y-75207666D01*
X55642857Y-75255285D01*
X55833333Y-75302904D01*
X56071428Y-75302904D01*
X56261904Y-75255285D01*
X56357142Y-75207666D01*
X56404761Y-75160047D01*
X56452380Y-75064809D01*
X56452380Y-74969571D01*
X56404761Y-74874333D01*
X56357142Y-74826714D01*
X56261904Y-74779095D01*
X56071428Y-74731476D01*
X55833333Y-74731476D01*
X55642857Y-74779095D01*
X55547619Y-74826714D01*
X55500000Y-74874333D01*
X55452380Y-74969571D01*
%TO.C,A1*%
X146182785Y-104370166D02*
X145706595Y-104370166D01*
X146278023Y-104655880D02*
X145944690Y-103655880D01*
X145611357Y-104655880D01*
X144754214Y-104655880D02*
X145325642Y-104655880D01*
X145039928Y-104655880D02*
X145039928Y-103655880D01*
X145135166Y-103798738D01*
X145230404Y-103893976D01*
X145325642Y-103941595D01*
%TO.C,R48*%
X124442857Y-122752380D02*
X124776190Y-122276190D01*
X125014285Y-122752380D02*
X125014285Y-121752380D01*
X124633333Y-121752380D01*
X124538095Y-121800000D01*
X124490476Y-121847619D01*
X124442857Y-121942857D01*
X124442857Y-122085714D01*
X124490476Y-122180952D01*
X124538095Y-122228571D01*
X124633333Y-122276190D01*
X125014285Y-122276190D01*
X123585714Y-122085714D02*
X123585714Y-122752380D01*
X123823809Y-121704761D02*
X124061904Y-122419047D01*
X123442857Y-122419047D01*
X122919047Y-122180952D02*
X123014285Y-122133333D01*
X123061904Y-122085714D01*
X123109523Y-121990476D01*
X123109523Y-121942857D01*
X123061904Y-121847619D01*
X123014285Y-121800000D01*
X122919047Y-121752380D01*
X122728571Y-121752380D01*
X122633333Y-121800000D01*
X122585714Y-121847619D01*
X122538095Y-121942857D01*
X122538095Y-121990476D01*
X122585714Y-122085714D01*
X122633333Y-122133333D01*
X122728571Y-122180952D01*
X122919047Y-122180952D01*
X123014285Y-122228571D01*
X123061904Y-122276190D01*
X123109523Y-122371428D01*
X123109523Y-122561904D01*
X123061904Y-122657142D01*
X123014285Y-122704761D01*
X122919047Y-122752380D01*
X122728571Y-122752380D01*
X122633333Y-122704761D01*
X122585714Y-122657142D01*
X122538095Y-122561904D01*
X122538095Y-122371428D01*
X122585714Y-122276190D01*
X122633333Y-122228571D01*
X122728571Y-122180952D01*
%TO.C,R16*%
X148471880Y-98163142D02*
X147995690Y-97829809D01*
X148471880Y-97591714D02*
X147471880Y-97591714D01*
X147471880Y-97972666D01*
X147519500Y-98067904D01*
X147567119Y-98115523D01*
X147662357Y-98163142D01*
X147805214Y-98163142D01*
X147900452Y-98115523D01*
X147948071Y-98067904D01*
X147995690Y-97972666D01*
X147995690Y-97591714D01*
X148471880Y-99115523D02*
X148471880Y-98544095D01*
X148471880Y-98829809D02*
X147471880Y-98829809D01*
X147614738Y-98734571D01*
X147709976Y-98639333D01*
X147757595Y-98544095D01*
X147471880Y-99972666D02*
X147471880Y-99782190D01*
X147519500Y-99686952D01*
X147567119Y-99639333D01*
X147709976Y-99544095D01*
X147900452Y-99496476D01*
X148281404Y-99496476D01*
X148376642Y-99544095D01*
X148424261Y-99591714D01*
X148471880Y-99686952D01*
X148471880Y-99877428D01*
X148424261Y-99972666D01*
X148376642Y-100020285D01*
X148281404Y-100067904D01*
X148043309Y-100067904D01*
X147948071Y-100020285D01*
X147900452Y-99972666D01*
X147852833Y-99877428D01*
X147852833Y-99686952D01*
X147900452Y-99591714D01*
X147948071Y-99544095D01*
X148043309Y-99496476D01*
%TO.C,JP1*%
X73733333Y-102852380D02*
X73733333Y-103566666D01*
X73780952Y-103709523D01*
X73876190Y-103804761D01*
X74019047Y-103852380D01*
X74114285Y-103852380D01*
X73257142Y-103852380D02*
X73257142Y-102852380D01*
X72876190Y-102852380D01*
X72780952Y-102900000D01*
X72733333Y-102947619D01*
X72685714Y-103042857D01*
X72685714Y-103185714D01*
X72733333Y-103280952D01*
X72780952Y-103328571D01*
X72876190Y-103376190D01*
X73257142Y-103376190D01*
X71733333Y-103852380D02*
X72304761Y-103852380D01*
X72019047Y-103852380D02*
X72019047Y-102852380D01*
X72114285Y-102995238D01*
X72209523Y-103090476D01*
X72304761Y-103138095D01*
%TO.C,TP3*%
X40123904Y-63503880D02*
X39552476Y-63503880D01*
X39838190Y-64503880D02*
X39838190Y-63503880D01*
X39219142Y-64503880D02*
X39219142Y-63503880D01*
X38838190Y-63503880D01*
X38742952Y-63551500D01*
X38695333Y-63599119D01*
X38647714Y-63694357D01*
X38647714Y-63837214D01*
X38695333Y-63932452D01*
X38742952Y-63980071D01*
X38838190Y-64027690D01*
X39219142Y-64027690D01*
X38314380Y-63503880D02*
X37695333Y-63503880D01*
X38028666Y-63884833D01*
X37885809Y-63884833D01*
X37790571Y-63932452D01*
X37742952Y-63980071D01*
X37695333Y-64075309D01*
X37695333Y-64313404D01*
X37742952Y-64408642D01*
X37790571Y-64456261D01*
X37885809Y-64503880D01*
X38171523Y-64503880D01*
X38266761Y-64456261D01*
X38314380Y-64408642D01*
%TO.C,R11*%
X45980880Y-81399142D02*
X45504690Y-81065809D01*
X45980880Y-80827714D02*
X44980880Y-80827714D01*
X44980880Y-81208666D01*
X45028500Y-81303904D01*
X45076119Y-81351523D01*
X45171357Y-81399142D01*
X45314214Y-81399142D01*
X45409452Y-81351523D01*
X45457071Y-81303904D01*
X45504690Y-81208666D01*
X45504690Y-80827714D01*
X45980880Y-82351523D02*
X45980880Y-81780095D01*
X45980880Y-82065809D02*
X44980880Y-82065809D01*
X45123738Y-81970571D01*
X45218976Y-81875333D01*
X45266595Y-81780095D01*
X45980880Y-83303904D02*
X45980880Y-82732476D01*
X45980880Y-83018190D02*
X44980880Y-83018190D01*
X45123738Y-82922952D01*
X45218976Y-82827714D01*
X45266595Y-82732476D01*
%TO.C,JP9*%
X129152380Y-120166666D02*
X129866666Y-120166666D01*
X130009523Y-120119047D01*
X130104761Y-120023809D01*
X130152380Y-119880952D01*
X130152380Y-119785714D01*
X130152380Y-120642857D02*
X129152380Y-120642857D01*
X129152380Y-121023809D01*
X129200000Y-121119047D01*
X129247619Y-121166666D01*
X129342857Y-121214285D01*
X129485714Y-121214285D01*
X129580952Y-121166666D01*
X129628571Y-121119047D01*
X129676190Y-121023809D01*
X129676190Y-120642857D01*
X130152380Y-121690476D02*
X130152380Y-121880952D01*
X130104761Y-121976190D01*
X130057142Y-122023809D01*
X129914285Y-122119047D01*
X129723809Y-122166666D01*
X129342857Y-122166666D01*
X129247619Y-122119047D01*
X129200000Y-122071428D01*
X129152380Y-121976190D01*
X129152380Y-121785714D01*
X129200000Y-121690476D01*
X129247619Y-121642857D01*
X129342857Y-121595238D01*
X129580952Y-121595238D01*
X129676190Y-121642857D01*
X129723809Y-121690476D01*
X129771428Y-121785714D01*
X129771428Y-121976190D01*
X129723809Y-122071428D01*
X129676190Y-122119047D01*
X129580952Y-122166666D01*
%TO.C,JP11*%
X126152380Y-119390476D02*
X126866666Y-119390476D01*
X127009523Y-119342857D01*
X127104761Y-119247619D01*
X127152380Y-119104761D01*
X127152380Y-119009523D01*
X127152380Y-119866666D02*
X126152380Y-119866666D01*
X126152380Y-120247619D01*
X126200000Y-120342857D01*
X126247619Y-120390476D01*
X126342857Y-120438095D01*
X126485714Y-120438095D01*
X126580952Y-120390476D01*
X126628571Y-120342857D01*
X126676190Y-120247619D01*
X126676190Y-119866666D01*
X127152380Y-121390476D02*
X127152380Y-120819047D01*
X127152380Y-121104761D02*
X126152380Y-121104761D01*
X126295238Y-121009523D01*
X126390476Y-120914285D01*
X126438095Y-120819047D01*
X127152380Y-122342857D02*
X127152380Y-121771428D01*
X127152380Y-122057142D02*
X126152380Y-122057142D01*
X126295238Y-121961904D01*
X126390476Y-121866666D01*
X126438095Y-121771428D01*
%TO.C,A2*%
X163073785Y-104370166D02*
X162597595Y-104370166D01*
X163169023Y-104655880D02*
X162835690Y-103655880D01*
X162502357Y-104655880D01*
X162216642Y-103751119D02*
X162169023Y-103703500D01*
X162073785Y-103655880D01*
X161835690Y-103655880D01*
X161740452Y-103703500D01*
X161692833Y-103751119D01*
X161645214Y-103846357D01*
X161645214Y-103941595D01*
X161692833Y-104084452D01*
X162264261Y-104655880D01*
X161645214Y-104655880D01*
%TO.C,C3*%
X49066666Y-63957142D02*
X49114285Y-64004761D01*
X49257142Y-64052380D01*
X49352380Y-64052380D01*
X49495238Y-64004761D01*
X49590476Y-63909523D01*
X49638095Y-63814285D01*
X49685714Y-63623809D01*
X49685714Y-63480952D01*
X49638095Y-63290476D01*
X49590476Y-63195238D01*
X49495238Y-63100000D01*
X49352380Y-63052380D01*
X49257142Y-63052380D01*
X49114285Y-63100000D01*
X49066666Y-63147619D01*
X48733333Y-63052380D02*
X48114285Y-63052380D01*
X48447619Y-63433333D01*
X48304761Y-63433333D01*
X48209523Y-63480952D01*
X48161904Y-63528571D01*
X48114285Y-63623809D01*
X48114285Y-63861904D01*
X48161904Y-63957142D01*
X48209523Y-64004761D01*
X48304761Y-64052380D01*
X48590476Y-64052380D01*
X48685714Y-64004761D01*
X48733333Y-63957142D01*
%TO.C,JP8*%
X88333333Y-122352380D02*
X88333333Y-123066666D01*
X88380952Y-123209523D01*
X88476190Y-123304761D01*
X88619047Y-123352380D01*
X88714285Y-123352380D01*
X87857142Y-123352380D02*
X87857142Y-122352380D01*
X87476190Y-122352380D01*
X87380952Y-122400000D01*
X87333333Y-122447619D01*
X87285714Y-122542857D01*
X87285714Y-122685714D01*
X87333333Y-122780952D01*
X87380952Y-122828571D01*
X87476190Y-122876190D01*
X87857142Y-122876190D01*
X86714285Y-122780952D02*
X86809523Y-122733333D01*
X86857142Y-122685714D01*
X86904761Y-122590476D01*
X86904761Y-122542857D01*
X86857142Y-122447619D01*
X86809523Y-122400000D01*
X86714285Y-122352380D01*
X86523809Y-122352380D01*
X86428571Y-122400000D01*
X86380952Y-122447619D01*
X86333333Y-122542857D01*
X86333333Y-122590476D01*
X86380952Y-122685714D01*
X86428571Y-122733333D01*
X86523809Y-122780952D01*
X86714285Y-122780952D01*
X86809523Y-122828571D01*
X86857142Y-122876190D01*
X86904761Y-122971428D01*
X86904761Y-123161904D01*
X86857142Y-123257142D01*
X86809523Y-123304761D01*
X86714285Y-123352380D01*
X86523809Y-123352380D01*
X86428571Y-123304761D01*
X86380952Y-123257142D01*
X86333333Y-123161904D01*
X86333333Y-122971428D01*
X86380952Y-122876190D01*
X86428571Y-122828571D01*
X86523809Y-122780952D01*
%TO.C,D1*%
X141029095Y-75283380D02*
X141029095Y-74283380D01*
X140791000Y-74283380D01*
X140648142Y-74331000D01*
X140552904Y-74426238D01*
X140505285Y-74521476D01*
X140457666Y-74711952D01*
X140457666Y-74854809D01*
X140505285Y-75045285D01*
X140552904Y-75140523D01*
X140648142Y-75235761D01*
X140791000Y-75283380D01*
X141029095Y-75283380D01*
X139505285Y-75283380D02*
X140076714Y-75283380D01*
X139791000Y-75283380D02*
X139791000Y-74283380D01*
X139886238Y-74426238D01*
X139981476Y-74521476D01*
X140076714Y-74569095D01*
%TO.C,C8*%
X128066666Y-69757142D02*
X128114285Y-69804761D01*
X128257142Y-69852380D01*
X128352380Y-69852380D01*
X128495238Y-69804761D01*
X128590476Y-69709523D01*
X128638095Y-69614285D01*
X128685714Y-69423809D01*
X128685714Y-69280952D01*
X128638095Y-69090476D01*
X128590476Y-68995238D01*
X128495238Y-68900000D01*
X128352380Y-68852380D01*
X128257142Y-68852380D01*
X128114285Y-68900000D01*
X128066666Y-68947619D01*
X127495238Y-69280952D02*
X127590476Y-69233333D01*
X127638095Y-69185714D01*
X127685714Y-69090476D01*
X127685714Y-69042857D01*
X127638095Y-68947619D01*
X127590476Y-68900000D01*
X127495238Y-68852380D01*
X127304761Y-68852380D01*
X127209523Y-68900000D01*
X127161904Y-68947619D01*
X127114285Y-69042857D01*
X127114285Y-69090476D01*
X127161904Y-69185714D01*
X127209523Y-69233333D01*
X127304761Y-69280952D01*
X127495238Y-69280952D01*
X127590476Y-69328571D01*
X127638095Y-69376190D01*
X127685714Y-69471428D01*
X127685714Y-69661904D01*
X127638095Y-69757142D01*
X127590476Y-69804761D01*
X127495238Y-69852380D01*
X127304761Y-69852380D01*
X127209523Y-69804761D01*
X127161904Y-69757142D01*
X127114285Y-69661904D01*
X127114285Y-69471428D01*
X127161904Y-69376190D01*
X127209523Y-69328571D01*
X127304761Y-69280952D01*
%TO.C,C24*%
X85942857Y-107957142D02*
X85990476Y-108004761D01*
X86133333Y-108052380D01*
X86228571Y-108052380D01*
X86371428Y-108004761D01*
X86466666Y-107909523D01*
X86514285Y-107814285D01*
X86561904Y-107623809D01*
X86561904Y-107480952D01*
X86514285Y-107290476D01*
X86466666Y-107195238D01*
X86371428Y-107100000D01*
X86228571Y-107052380D01*
X86133333Y-107052380D01*
X85990476Y-107100000D01*
X85942857Y-107147619D01*
X85561904Y-107147619D02*
X85514285Y-107100000D01*
X85419047Y-107052380D01*
X85180952Y-107052380D01*
X85085714Y-107100000D01*
X85038095Y-107147619D01*
X84990476Y-107242857D01*
X84990476Y-107338095D01*
X85038095Y-107480952D01*
X85609523Y-108052380D01*
X84990476Y-108052380D01*
X84133333Y-107385714D02*
X84133333Y-108052380D01*
X84371428Y-107004761D02*
X84609523Y-107719047D01*
X83990476Y-107719047D01*
%TO.C,JP3*%
X120852380Y-114366666D02*
X121566666Y-114366666D01*
X121709523Y-114319047D01*
X121804761Y-114223809D01*
X121852380Y-114080952D01*
X121852380Y-113985714D01*
X121852380Y-114842857D02*
X120852380Y-114842857D01*
X120852380Y-115223809D01*
X120900000Y-115319047D01*
X120947619Y-115366666D01*
X121042857Y-115414285D01*
X121185714Y-115414285D01*
X121280952Y-115366666D01*
X121328571Y-115319047D01*
X121376190Y-115223809D01*
X121376190Y-114842857D01*
X120852380Y-115747619D02*
X120852380Y-116366666D01*
X121233333Y-116033333D01*
X121233333Y-116176190D01*
X121280952Y-116271428D01*
X121328571Y-116319047D01*
X121423809Y-116366666D01*
X121661904Y-116366666D01*
X121757142Y-116319047D01*
X121804761Y-116271428D01*
X121852380Y-116176190D01*
X121852380Y-115890476D01*
X121804761Y-115795238D01*
X121757142Y-115747619D01*
%TO.C,C10*%
X126626857Y-84841142D02*
X126674476Y-84888761D01*
X126817333Y-84936380D01*
X126912571Y-84936380D01*
X127055428Y-84888761D01*
X127150666Y-84793523D01*
X127198285Y-84698285D01*
X127245904Y-84507809D01*
X127245904Y-84364952D01*
X127198285Y-84174476D01*
X127150666Y-84079238D01*
X127055428Y-83984000D01*
X126912571Y-83936380D01*
X126817333Y-83936380D01*
X126674476Y-83984000D01*
X126626857Y-84031619D01*
X125674476Y-84936380D02*
X126245904Y-84936380D01*
X125960190Y-84936380D02*
X125960190Y-83936380D01*
X126055428Y-84079238D01*
X126150666Y-84174476D01*
X126245904Y-84222095D01*
X125055428Y-83936380D02*
X124960190Y-83936380D01*
X124864952Y-83984000D01*
X124817333Y-84031619D01*
X124769714Y-84126857D01*
X124722095Y-84317333D01*
X124722095Y-84555428D01*
X124769714Y-84745904D01*
X124817333Y-84841142D01*
X124864952Y-84888761D01*
X124960190Y-84936380D01*
X125055428Y-84936380D01*
X125150666Y-84888761D01*
X125198285Y-84841142D01*
X125245904Y-84745904D01*
X125293523Y-84555428D01*
X125293523Y-84317333D01*
X125245904Y-84126857D01*
X125198285Y-84031619D01*
X125150666Y-83984000D01*
X125055428Y-83936380D01*
%TO.C,C75*%
X131450142Y-73525142D02*
X131497761Y-73477523D01*
X131545380Y-73334666D01*
X131545380Y-73239428D01*
X131497761Y-73096571D01*
X131402523Y-73001333D01*
X131307285Y-72953714D01*
X131116809Y-72906095D01*
X130973952Y-72906095D01*
X130783476Y-72953714D01*
X130688238Y-73001333D01*
X130593000Y-73096571D01*
X130545380Y-73239428D01*
X130545380Y-73334666D01*
X130593000Y-73477523D01*
X130640619Y-73525142D01*
X130545380Y-73858476D02*
X130545380Y-74525142D01*
X131545380Y-74096571D01*
X130545380Y-75382285D02*
X130545380Y-74906095D01*
X131021571Y-74858476D01*
X130973952Y-74906095D01*
X130926333Y-75001333D01*
X130926333Y-75239428D01*
X130973952Y-75334666D01*
X131021571Y-75382285D01*
X131116809Y-75429904D01*
X131354904Y-75429904D01*
X131450142Y-75382285D01*
X131497761Y-75334666D01*
X131545380Y-75239428D01*
X131545380Y-75001333D01*
X131497761Y-74906095D01*
X131450142Y-74858476D01*
%TO.C,C17*%
X40396642Y-81399142D02*
X40444261Y-81351523D01*
X40491880Y-81208666D01*
X40491880Y-81113428D01*
X40444261Y-80970571D01*
X40349023Y-80875333D01*
X40253785Y-80827714D01*
X40063309Y-80780095D01*
X39920452Y-80780095D01*
X39729976Y-80827714D01*
X39634738Y-80875333D01*
X39539500Y-80970571D01*
X39491880Y-81113428D01*
X39491880Y-81208666D01*
X39539500Y-81351523D01*
X39587119Y-81399142D01*
X40491880Y-82351523D02*
X40491880Y-81780095D01*
X40491880Y-82065809D02*
X39491880Y-82065809D01*
X39634738Y-81970571D01*
X39729976Y-81875333D01*
X39777595Y-81780095D01*
X39491880Y-82684857D02*
X39491880Y-83351523D01*
X40491880Y-82922952D01*
%TO.C,JP12*%
X107052380Y-120290476D02*
X107766666Y-120290476D01*
X107909523Y-120242857D01*
X108004761Y-120147619D01*
X108052380Y-120004761D01*
X108052380Y-119909523D01*
X108052380Y-120766666D02*
X107052380Y-120766666D01*
X107052380Y-121147619D01*
X107100000Y-121242857D01*
X107147619Y-121290476D01*
X107242857Y-121338095D01*
X107385714Y-121338095D01*
X107480952Y-121290476D01*
X107528571Y-121242857D01*
X107576190Y-121147619D01*
X107576190Y-120766666D01*
X108052380Y-122290476D02*
X108052380Y-121719047D01*
X108052380Y-122004761D02*
X107052380Y-122004761D01*
X107195238Y-121909523D01*
X107290476Y-121814285D01*
X107338095Y-121719047D01*
X107147619Y-122671428D02*
X107100000Y-122719047D01*
X107052380Y-122814285D01*
X107052380Y-123052380D01*
X107100000Y-123147619D01*
X107147619Y-123195238D01*
X107242857Y-123242857D01*
X107338095Y-123242857D01*
X107480952Y-123195238D01*
X108052380Y-122623809D01*
X108052380Y-123242857D01*
%TO.C,Q1*%
X145395238Y-64547619D02*
X145490476Y-64500000D01*
X145585714Y-64404761D01*
X145728571Y-64261904D01*
X145823809Y-64214285D01*
X145919047Y-64214285D01*
X145871428Y-64452380D02*
X145966666Y-64404761D01*
X146061904Y-64309523D01*
X146109523Y-64119047D01*
X146109523Y-63785714D01*
X146061904Y-63595238D01*
X145966666Y-63500000D01*
X145871428Y-63452380D01*
X145680952Y-63452380D01*
X145585714Y-63500000D01*
X145490476Y-63595238D01*
X145442857Y-63785714D01*
X145442857Y-64119047D01*
X145490476Y-64309523D01*
X145585714Y-64404761D01*
X145680952Y-64452380D01*
X145871428Y-64452380D01*
X144490476Y-64452380D02*
X145061904Y-64452380D01*
X144776190Y-64452380D02*
X144776190Y-63452380D01*
X144871428Y-63595238D01*
X144966666Y-63690476D01*
X145061904Y-63738095D01*
%TO.C,R3*%
X136409666Y-75452380D02*
X136743000Y-74976190D01*
X136981095Y-75452380D02*
X136981095Y-74452380D01*
X136600142Y-74452380D01*
X136504904Y-74500000D01*
X136457285Y-74547619D01*
X136409666Y-74642857D01*
X136409666Y-74785714D01*
X136457285Y-74880952D01*
X136504904Y-74928571D01*
X136600142Y-74976190D01*
X136981095Y-74976190D01*
X136076333Y-74452380D02*
X135457285Y-74452380D01*
X135790619Y-74833333D01*
X135647761Y-74833333D01*
X135552523Y-74880952D01*
X135504904Y-74928571D01*
X135457285Y-75023809D01*
X135457285Y-75261904D01*
X135504904Y-75357142D01*
X135552523Y-75404761D01*
X135647761Y-75452380D01*
X135933476Y-75452380D01*
X136028714Y-75404761D01*
X136076333Y-75357142D01*
%TO.C,R10*%
X46852380Y-78357142D02*
X46376190Y-78023809D01*
X46852380Y-77785714D02*
X45852380Y-77785714D01*
X45852380Y-78166666D01*
X45900000Y-78261904D01*
X45947619Y-78309523D01*
X46042857Y-78357142D01*
X46185714Y-78357142D01*
X46280952Y-78309523D01*
X46328571Y-78261904D01*
X46376190Y-78166666D01*
X46376190Y-77785714D01*
X46852380Y-79309523D02*
X46852380Y-78738095D01*
X46852380Y-79023809D02*
X45852380Y-79023809D01*
X45995238Y-78928571D01*
X46090476Y-78833333D01*
X46138095Y-78738095D01*
X45852380Y-79928571D02*
X45852380Y-80023809D01*
X45900000Y-80119047D01*
X45947619Y-80166666D01*
X46042857Y-80214285D01*
X46233333Y-80261904D01*
X46471428Y-80261904D01*
X46661904Y-80214285D01*
X46757142Y-80166666D01*
X46804761Y-80119047D01*
X46852380Y-80023809D01*
X46852380Y-79928571D01*
X46804761Y-79833333D01*
X46757142Y-79785714D01*
X46661904Y-79738095D01*
X46471428Y-79690476D01*
X46233333Y-79690476D01*
X46042857Y-79738095D01*
X45947619Y-79785714D01*
X45900000Y-79833333D01*
X45852380Y-79928571D01*
%TO.C,C6*%
X133957142Y-57733333D02*
X134004761Y-57685714D01*
X134052380Y-57542857D01*
X134052380Y-57447619D01*
X134004761Y-57304761D01*
X133909523Y-57209523D01*
X133814285Y-57161904D01*
X133623809Y-57114285D01*
X133480952Y-57114285D01*
X133290476Y-57161904D01*
X133195238Y-57209523D01*
X133100000Y-57304761D01*
X133052380Y-57447619D01*
X133052380Y-57542857D01*
X133100000Y-57685714D01*
X133147619Y-57733333D01*
X133052380Y-58590476D02*
X133052380Y-58400000D01*
X133100000Y-58304761D01*
X133147619Y-58257142D01*
X133290476Y-58161904D01*
X133480952Y-58114285D01*
X133861904Y-58114285D01*
X133957142Y-58161904D01*
X134004761Y-58209523D01*
X134052380Y-58304761D01*
X134052380Y-58495238D01*
X134004761Y-58590476D01*
X133957142Y-58638095D01*
X133861904Y-58685714D01*
X133623809Y-58685714D01*
X133528571Y-58638095D01*
X133480952Y-58590476D01*
X133433333Y-58495238D01*
X133433333Y-58304761D01*
X133480952Y-58209523D01*
X133528571Y-58161904D01*
X133623809Y-58114285D01*
%TO.C,R1*%
X144521666Y-75253380D02*
X144855000Y-74777190D01*
X145093095Y-75253380D02*
X145093095Y-74253380D01*
X144712142Y-74253380D01*
X144616904Y-74301000D01*
X144569285Y-74348619D01*
X144521666Y-74443857D01*
X144521666Y-74586714D01*
X144569285Y-74681952D01*
X144616904Y-74729571D01*
X144712142Y-74777190D01*
X145093095Y-74777190D01*
X143569285Y-75253380D02*
X144140714Y-75253380D01*
X143855000Y-75253380D02*
X143855000Y-74253380D01*
X143950238Y-74396238D01*
X144045476Y-74491476D01*
X144140714Y-74539095D01*
%TO.C,TP6*%
X63711904Y-124424380D02*
X63140476Y-124424380D01*
X63426190Y-125424380D02*
X63426190Y-124424380D01*
X62807142Y-125424380D02*
X62807142Y-124424380D01*
X62426190Y-124424380D01*
X62330952Y-124472000D01*
X62283333Y-124519619D01*
X62235714Y-124614857D01*
X62235714Y-124757714D01*
X62283333Y-124852952D01*
X62330952Y-124900571D01*
X62426190Y-124948190D01*
X62807142Y-124948190D01*
X61378571Y-124424380D02*
X61569047Y-124424380D01*
X61664285Y-124472000D01*
X61711904Y-124519619D01*
X61807142Y-124662476D01*
X61854761Y-124852952D01*
X61854761Y-125233904D01*
X61807142Y-125329142D01*
X61759523Y-125376761D01*
X61664285Y-125424380D01*
X61473809Y-125424380D01*
X61378571Y-125376761D01*
X61330952Y-125329142D01*
X61283333Y-125233904D01*
X61283333Y-124995809D01*
X61330952Y-124900571D01*
X61378571Y-124852952D01*
X61473809Y-124805333D01*
X61664285Y-124805333D01*
X61759523Y-124852952D01*
X61807142Y-124900571D01*
X61854761Y-124995809D01*
D11*
%TO.C,TP7*%
X83462000Y-126970000D02*
G75*
G03*
X83462000Y-126970000I-1200000J0D01*
G01*
%TO.C,C19*%
X49493500Y-78796248D02*
X49493500Y-79318752D01*
X50963500Y-78796248D02*
X50963500Y-79318752D01*
%TO.C,C18*%
X49493500Y-83319252D02*
X49493500Y-82796748D01*
X50963500Y-83319252D02*
X50963500Y-82796748D01*
%TO.C,TP8*%
X122578000Y-125954000D02*
G75*
G03*
X122578000Y-125954000I-1200000J0D01*
G01*
%TO.C,TP5*%
X121977000Y-66802000D02*
G75*
G03*
X121977000Y-66802000I-1200000J0D01*
G01*
%TO.C,R47*%
X84321000Y-125726936D02*
X84321000Y-126181064D01*
X85791000Y-125726936D02*
X85791000Y-126181064D01*
%TO.C,C13*%
X122181252Y-81253000D02*
X121658748Y-81253000D01*
X122181252Y-79783000D02*
X121658748Y-79783000D01*
%TO.C,R14*%
X53494000Y-73813936D02*
X53494000Y-74268064D01*
X54964000Y-73813936D02*
X54964000Y-74268064D01*
%TO.C,R46*%
X65979000Y-125726936D02*
X65979000Y-126181064D01*
X64509000Y-125726936D02*
X64509000Y-126181064D01*
%TO.C,R4*%
X119353064Y-57177000D02*
X118898936Y-57177000D01*
X119353064Y-58647000D02*
X118898936Y-58647000D01*
%TO.C,C25*%
X77751000Y-106164748D02*
X77751000Y-106687252D01*
X79221000Y-106164748D02*
X79221000Y-106687252D01*
%TO.C,R23*%
X155802000Y-68082936D02*
X155802000Y-68537064D01*
X154332000Y-68082936D02*
X154332000Y-68537064D01*
%TO.C,JP6*%
X91644000Y-128004000D02*
X91644000Y-123904000D01*
X89644000Y-123904000D02*
X89644000Y-128004000D01*
X91844000Y-124654000D02*
X92144000Y-124354000D01*
X91644000Y-123904000D02*
X89644000Y-123904000D01*
X89644000Y-128004000D02*
X91644000Y-128004000D01*
X92144000Y-124354000D02*
X92144000Y-124954000D01*
X91844000Y-124654000D02*
X92144000Y-124954000D01*
%TO.C,JP2*%
X76946000Y-104376000D02*
X74946000Y-104376000D01*
X74746000Y-107726000D02*
X74446000Y-107426000D01*
X74946000Y-108476000D02*
X76946000Y-108476000D01*
X74946000Y-104376000D02*
X74946000Y-108476000D01*
X74446000Y-108026000D02*
X74446000Y-107426000D01*
X76946000Y-108476000D02*
X76946000Y-104376000D01*
X74746000Y-107726000D02*
X74446000Y-108026000D01*
%TO.C,R9*%
X48804500Y-82830936D02*
X48804500Y-83285064D01*
X47334500Y-82830936D02*
X47334500Y-83285064D01*
%TO.C,R49*%
X104133000Y-125726936D02*
X104133000Y-126181064D01*
X105603000Y-125726936D02*
X105603000Y-126181064D01*
%TO.C,TP4*%
X123120000Y-83312000D02*
G75*
G03*
X123120000Y-83312000I-1200000J0D01*
G01*
%TO.C,R13*%
X48985500Y-73813936D02*
X48985500Y-74268064D01*
X50455500Y-73813936D02*
X50455500Y-74268064D01*
%TO.C,C14*%
X121038252Y-68861000D02*
X120515748Y-68861000D01*
X121038252Y-70331000D02*
X120515748Y-70331000D01*
%TO.C,JP4*%
X113300000Y-116413500D02*
X115300000Y-116413500D01*
X113100000Y-115663500D02*
X112800000Y-115963500D01*
X115300000Y-112313500D02*
X113300000Y-112313500D01*
X113100000Y-115663500D02*
X112800000Y-115363500D01*
X115300000Y-116413500D02*
X115300000Y-112313500D01*
X112800000Y-115963500D02*
X112800000Y-115363500D01*
X113300000Y-112313500D02*
X113300000Y-116413500D01*
%TO.C,R15*%
X148934500Y-94715064D02*
X148934500Y-94260936D01*
X150404500Y-94715064D02*
X150404500Y-94260936D01*
%TO.C,C7*%
X124579748Y-66321000D02*
X125102252Y-66321000D01*
X124579748Y-67791000D02*
X125102252Y-67791000D01*
%TO.C,JP10*%
X111456000Y-128004000D02*
X111456000Y-123904000D01*
X111656000Y-124654000D02*
X111956000Y-124354000D01*
X109456000Y-123904000D02*
X109456000Y-128004000D01*
X109456000Y-128004000D02*
X111456000Y-128004000D01*
X111956000Y-124354000D02*
X111956000Y-124954000D01*
X111656000Y-124654000D02*
X111956000Y-124954000D01*
X111456000Y-123904000D02*
X109456000Y-123904000D01*
%TO.C,J2*%
X45905000Y-59081500D02*
X43305000Y-59081500D01*
X43305000Y-59081500D02*
X43305000Y-61681500D01*
X43305000Y-61681500D02*
X94225000Y-61681500D01*
X45905000Y-56481500D02*
X45905000Y-59081500D01*
X45905000Y-56481500D02*
X94225000Y-56481500D01*
X43305000Y-56481500D02*
X43305000Y-57811500D01*
X44635000Y-56481500D02*
X43305000Y-56481500D01*
X94225000Y-56481500D02*
X94225000Y-61681500D01*
%TO.C,C23*%
X81526748Y-104675000D02*
X82049252Y-104675000D01*
X81526748Y-106145000D02*
X82049252Y-106145000D01*
%TO.C,U2*%
X127070000Y-76180000D02*
X127070000Y-76905000D01*
X121850000Y-72410000D02*
X121850000Y-71685000D01*
X127070000Y-71685000D02*
X126345000Y-71685000D01*
X121850000Y-76905000D02*
X122575000Y-76905000D01*
X121850000Y-71685000D02*
X122575000Y-71685000D01*
X121850000Y-76180000D02*
X121850000Y-76905000D01*
X127070000Y-72410000D02*
X127070000Y-71685000D01*
%TO.C,TP2*%
X40062000Y-69224500D02*
G75*
G03*
X40062000Y-69224500I-1200000J0D01*
G01*
%TO.C,JP5*%
X72332000Y-124354000D02*
X72332000Y-124954000D01*
X69832000Y-128004000D02*
X71832000Y-128004000D01*
X72032000Y-124654000D02*
X72332000Y-124954000D01*
X72032000Y-124654000D02*
X72332000Y-124354000D01*
X69832000Y-123904000D02*
X69832000Y-128004000D01*
X71832000Y-128004000D02*
X71832000Y-123904000D01*
X71832000Y-123904000D02*
X69832000Y-123904000D01*
%TO.C,TP9*%
X103274000Y-126970000D02*
G75*
G03*
X103274000Y-126970000I-1200000J0D01*
G01*
%TO.C,C26*%
X117575000Y-114102248D02*
X117575000Y-114624752D01*
X116105000Y-114102248D02*
X116105000Y-114624752D01*
%TO.C,JP7*%
X66584000Y-127254000D02*
X66284000Y-126954000D01*
X68784000Y-123904000D02*
X66784000Y-123904000D01*
X66284000Y-127554000D02*
X66284000Y-126954000D01*
X66584000Y-127254000D02*
X66284000Y-127554000D01*
X66784000Y-123904000D02*
X66784000Y-128004000D01*
X66784000Y-128004000D02*
X68784000Y-128004000D01*
X68784000Y-128004000D02*
X68784000Y-123904000D01*
%TO.C,TP1*%
X40062000Y-72653500D02*
G75*
G03*
X40062000Y-72653500I-1200000J0D01*
G01*
%TO.C,R20*%
X154332000Y-64145936D02*
X154332000Y-64600064D01*
X155802000Y-64145936D02*
X155802000Y-64600064D01*
%TO.C,C5*%
X130583000Y-61221252D02*
X130583000Y-60698748D01*
X132053000Y-61221252D02*
X132053000Y-60698748D01*
%TO.C,R12*%
X42518000Y-77242936D02*
X42518000Y-77697064D01*
X41048000Y-77242936D02*
X41048000Y-77697064D01*
%TO.C,C9*%
X125722748Y-81253000D02*
X126245252Y-81253000D01*
X125722748Y-79783000D02*
X126245252Y-79783000D01*
%TO.C,C4*%
X45331748Y-65305000D02*
X45854252Y-65305000D01*
X45331748Y-66775000D02*
X45854252Y-66775000D01*
%TO.C,C20*%
X51208000Y-73779748D02*
X51208000Y-74302252D01*
X52678000Y-73779748D02*
X52678000Y-74302252D01*
%TO.C,A1*%
X150548500Y-108013500D02*
X150548500Y-125923500D01*
X137718500Y-105343500D02*
X150548500Y-105343500D01*
X151818500Y-105343500D02*
X153218500Y-105343500D01*
X140388500Y-105343500D02*
X140388500Y-125923500D01*
X137718500Y-125923500D02*
X137718500Y-105343500D01*
X153218500Y-125923500D02*
X137718500Y-125923500D01*
X150548500Y-108013500D02*
X153218500Y-108013500D01*
X153218500Y-108013500D02*
X153218500Y-125923500D01*
X153218500Y-105343500D02*
X153218500Y-106743500D01*
X150548500Y-105343500D02*
X150548500Y-108013500D01*
%TO.C,R48*%
X124907000Y-124710936D02*
X124907000Y-125165064D01*
X123437000Y-124710936D02*
X123437000Y-125165064D01*
%TO.C,R16*%
X148934500Y-98578936D02*
X148934500Y-99033064D01*
X150404500Y-98578936D02*
X150404500Y-99033064D01*
%TO.C,JP1*%
X71898000Y-108476000D02*
X73898000Y-108476000D01*
X73898000Y-108476000D02*
X73898000Y-104376000D01*
X71898000Y-104376000D02*
X71898000Y-108476000D01*
X71698000Y-107726000D02*
X71398000Y-107426000D01*
X73898000Y-104376000D02*
X71898000Y-104376000D01*
X71398000Y-108026000D02*
X71398000Y-107426000D01*
X71698000Y-107726000D02*
X71398000Y-108026000D01*
%TO.C,TP3*%
X40062000Y-66049500D02*
G75*
G03*
X40062000Y-66049500I-1200000J0D01*
G01*
%TO.C,R11*%
X43143500Y-82269064D02*
X43143500Y-81814936D01*
X44613500Y-82269064D02*
X44613500Y-81814936D01*
%TO.C,JP9*%
X131260000Y-123338000D02*
X131260000Y-123938000D01*
X130960000Y-123638000D02*
X131260000Y-123938000D01*
X130760000Y-126988000D02*
X130760000Y-122888000D01*
X130760000Y-122888000D02*
X128760000Y-122888000D01*
X128760000Y-122888000D02*
X128760000Y-126988000D01*
X130960000Y-123638000D02*
X131260000Y-123338000D01*
X128760000Y-126988000D02*
X130760000Y-126988000D01*
%TO.C,JP11*%
X125712000Y-126988000D02*
X127712000Y-126988000D01*
X127712000Y-126988000D02*
X127712000Y-122888000D01*
X127712000Y-122888000D02*
X125712000Y-122888000D01*
X125212000Y-126538000D02*
X125212000Y-125938000D01*
X125512000Y-126238000D02*
X125212000Y-126538000D01*
X125512000Y-126238000D02*
X125212000Y-125938000D01*
X125712000Y-122888000D02*
X125712000Y-126988000D01*
%TO.C,A2*%
X168709500Y-105343500D02*
X170109500Y-105343500D01*
X170109500Y-108013500D02*
X170109500Y-125923500D01*
X167439500Y-105343500D02*
X167439500Y-108013500D01*
X170109500Y-105343500D02*
X170109500Y-106743500D01*
X167439500Y-108013500D02*
X170109500Y-108013500D01*
X157279500Y-105343500D02*
X157279500Y-125923500D01*
X170109500Y-125923500D02*
X154609500Y-125923500D01*
X167439500Y-108013500D02*
X167439500Y-125923500D01*
X154609500Y-105343500D02*
X167439500Y-105343500D01*
X154609500Y-125923500D02*
X154609500Y-105343500D01*
%TO.C,C3*%
X45331748Y-64298500D02*
X45854252Y-64298500D01*
X45331748Y-62828500D02*
X45854252Y-62828500D01*
%TO.C,JP8*%
X86596000Y-123904000D02*
X86596000Y-128004000D01*
X88596000Y-128004000D02*
X88596000Y-123904000D01*
X86596000Y-128004000D02*
X88596000Y-128004000D01*
X86396000Y-127254000D02*
X86096000Y-126954000D01*
X86096000Y-127554000D02*
X86096000Y-126954000D01*
X86396000Y-127254000D02*
X86096000Y-127554000D01*
X88596000Y-123904000D02*
X86596000Y-123904000D01*
%TO.C,D1*%
X140029748Y-72416000D02*
X140552252Y-72416000D01*
X140029748Y-73886000D02*
X140552252Y-73886000D01*
%TO.C,C8*%
X124579748Y-68607000D02*
X125102252Y-68607000D01*
X124579748Y-70077000D02*
X125102252Y-70077000D01*
%TO.C,C24*%
X81526748Y-106961000D02*
X82049252Y-106961000D01*
X81526748Y-108431000D02*
X82049252Y-108431000D01*
%TO.C,JP3*%
X117880000Y-115963500D02*
X117880000Y-115363500D01*
X120380000Y-116413500D02*
X120380000Y-112313500D01*
X118180000Y-115663500D02*
X117880000Y-115363500D01*
X120380000Y-112313500D02*
X118380000Y-112313500D01*
X118380000Y-112313500D02*
X118380000Y-116413500D01*
X118180000Y-115663500D02*
X117880000Y-115963500D01*
X118380000Y-116413500D02*
X120380000Y-116413500D01*
%TO.C,C10*%
X125722748Y-82069000D02*
X126245252Y-82069000D01*
X125722748Y-83539000D02*
X126245252Y-83539000D01*
%TO.C,C75*%
X130148000Y-74429252D02*
X130148000Y-73906748D01*
X128678000Y-74429252D02*
X128678000Y-73906748D01*
%TO.C,C17*%
X42454500Y-81780748D02*
X42454500Y-82303252D01*
X40984500Y-81780748D02*
X40984500Y-82303252D01*
%TO.C,JP12*%
X106408000Y-128004000D02*
X108408000Y-128004000D01*
X106208000Y-127254000D02*
X105908000Y-127554000D01*
X105908000Y-127554000D02*
X105908000Y-126954000D01*
X106408000Y-123904000D02*
X106408000Y-128004000D01*
X108408000Y-123904000D02*
X106408000Y-123904000D01*
X108408000Y-128004000D02*
X108408000Y-123904000D01*
X106208000Y-127254000D02*
X105908000Y-126954000D01*
%TO.C,Q1*%
X138075000Y-71505000D02*
X135245000Y-71505000D01*
X138075000Y-65145000D02*
X136975000Y-65145000D01*
X138075000Y-71775000D02*
X138075000Y-71505000D01*
X139575000Y-64875000D02*
X138075000Y-64875000D01*
X138075000Y-64875000D02*
X138075000Y-65145000D01*
X139575000Y-71775000D02*
X138075000Y-71775000D01*
%TO.C,R3*%
X136470064Y-72416000D02*
X136015936Y-72416000D01*
X136470064Y-73886000D02*
X136015936Y-73886000D01*
%TO.C,R10*%
X47334500Y-79284564D02*
X47334500Y-78830436D01*
X48804500Y-79284564D02*
X48804500Y-78830436D01*
%TO.C,C6*%
X132869000Y-61221252D02*
X132869000Y-60698748D01*
X134339000Y-61221252D02*
X134339000Y-60698748D01*
%TO.C,R1*%
X144127936Y-73886000D02*
X144582064Y-73886000D01*
X144127936Y-72416000D02*
X144582064Y-72416000D01*
%TO.C,TP6*%
X63650000Y-126970000D02*
G75*
G03*
X63650000Y-126970000I-1200000J0D01*
G01*
%TD*%
M02*
