M48
; DRILL file {KiCad (6.0.7)} date Sun Nov 13 23:11:08 2022
; FORMAT={-:-/ absolute / inch / decimal}
; #@! TF.CreationDate,2022-11-13T23:11:08-05:00
; #@! TF.GenerationSoftware,Kicad,Pcbnew,(6.0.7)
; #@! TF.FileFunction,Plated,1,4,PTH
FMAT,2
INCH
; #@! TA.AperFunction,Plated,PTH,ViaDrill
T1C0.0157
; #@! TA.AperFunction,Plated,PTH,ComponentDrill
T2C0.0299
; #@! TA.AperFunction,Plated,PTH,ComponentDrill
T3C0.0315
; #@! TA.AperFunction,Plated,PTH,ComponentDrill
T4C0.0394
; #@! TA.AperFunction,Plated,PTH,ComponentDrill
T5C0.0472
; #@! TA.AperFunction,Plated,PTH,ComponentDrill
T6C0.0591
; #@! TA.AperFunction,Plated,PTH,ComponentDrill
T7C0.0669
; #@! TA.AperFunction,Plated,PTH,ComponentDrill
T8C0.0728
; #@! TA.AperFunction,Plated,PTH,ComponentDrill
T9C0.0984
%
G90
G05
T1
X1.4375Y-2.725
X1.6758Y-2.1558
X1.8575Y-3.1925
X1.9575Y-2.765
X2.135Y-2.765
X2.235Y-5.4975
X2.25Y-5.255
X2.25Y-5.7475
X2.32Y-3.295
X2.4025Y-5.21
X2.4409Y-5.1535
X2.4843Y-5.2917
X2.4924Y-5.1336
X2.5591Y-5.0984
X2.5775Y-5.2425
X2.68Y-4.335
X2.6825Y-4.085
X2.6875Y-4.7775
X2.6975Y-5.24
X2.7025Y-5.1275
X2.7283Y-5.0039
X2.7283Y-5.0551
X2.7302Y-4.9076
X2.7475Y-4.05
X2.755Y-4.7725
X2.755Y-5.1275
X2.7637Y-5.2337
X2.7675Y-4.3325
X2.805Y-4.19
X2.8375Y-4.96
X2.8425Y-3.8825
X2.8525Y-4.7825
X2.8575Y-4.7
X2.9081Y-3.7969
X2.91Y-4.41
X2.915Y-4.9825
X2.9275Y-5.23
X2.9325Y-4.19
X2.965Y-4.02
X2.9775Y-4.9825
X3.0279Y-4.415
X3.0472Y-4.9213
X3.075Y-3.9625
X3.09Y-4.2775
X3.1225Y-4.05
X3.1375Y-4.15
X3.1625Y-4.2925
X3.17Y-4.085
X3.175Y-4.02
X3.1758Y-5.2142
X3.195Y-3.9625
X3.241Y-5.166
X3.255Y-3.985
X3.2608Y-4.1958
X3.265Y-5.2958
X3.2735Y-5.1336
X3.2975Y-4.92
X3.3575Y-4.435
X3.3603Y-5.2428
X3.4175Y-3.7375
X3.4475Y-4.425
X3.48Y-5.135
X3.48Y-5.235
X3.51Y-4.4575
X3.51Y-5.01
X3.5142Y-3.4933
X3.5375Y-5.135
X3.5412Y-5.2313
X3.5625Y-3.4925
X3.615Y-3.495
X3.6179Y-4.9629
X3.6909Y-2.9035
X3.95Y-5.2125
X4.0203Y-5.1652
X4.0408Y-5.2933
X4.0527Y-5.1336
X4.0625Y-3.64
X4.0775Y-4.92
X4.1421Y-5.2428
X4.225Y-3.3775
X4.26Y-5.235
X4.2625Y-5.135
X4.29Y-5.01
X4.2942Y-3.57
X4.3187Y-5.2313
X4.32Y-5.1325
X4.3251Y-2.8499
X4.36Y-4.3475
X4.3625Y-4.2625
X4.3975Y-4.9625
X4.425Y-3.8175
X4.43Y-4.4
X4.44Y-3.665
X4.4751Y-3.6299
X4.5Y-2.65
X4.6024Y-4.4134
X4.675Y-3.5075
X4.6949Y-5.187
X4.7047Y-4.689
X4.755Y-2.525
X4.76Y-2.955
X4.7625Y-2.8856
X4.7675Y-4.4075
X4.78Y-5.1224
X4.8092Y-5.2508
X4.815Y-5.1029
X4.8346Y-4.2441
X4.835Y-4.0925
X4.835Y-4.1325
X4.8406Y-4.8794
X4.85Y-3.11
X4.8775Y-2.9025
X4.8775Y-2.9525
X4.9021Y-5.2082
X4.91Y-3.065
X4.9125Y-3.55
X4.92Y-3.11
X4.9275Y-2.9025
X4.9275Y-2.9525
X4.955Y-3.065
X5.0008Y-3.2142
X5.0075Y-2.64
X5.0225Y-5.105
X5.025Y-5.195
X5.0325Y-2.8225
X5.04Y-2.975
X5.0475Y-4.97
X5.0775Y-5.1025
X5.08Y-5.1925
X5.1556Y-3.5731
X5.1575Y-2.7953
X5.1579Y-4.9217
X5.1775Y-4.1925
X5.18Y-4.2425
X5.185Y-4.62
X5.1875Y-3.715
X5.1875Y-4.6875
X5.2Y-4.3925
X5.2025Y-4.3425
X5.215Y-2.3592
X5.315Y-3.575
X5.3307Y-2.69
X5.3457Y-4.1425
X5.3469Y-3.0331
X5.36Y-4.2425
X5.3625Y-4.1925
X5.3705Y-3.2825
X5.38Y-3.15
X5.445Y-2.605
X5.445Y-2.78
X5.4665Y-3.3665
X5.505Y-3.615
X5.5819Y-3.5344
X5.6425Y-3.29
X5.6618Y-3.0218
X5.7795Y-2.8858
X5.8025Y-2.4775
X5.8075Y-2.955
X5.8119Y-3.615
X5.9175Y-3.435
X6.245Y-5.1525
T2
X6.0642Y-3.5836
X6.0642Y-3.6836
X6.0642Y-3.7836
X6.0642Y-3.8836
X6.1642Y-3.6336
X6.1642Y-3.7336
X6.1642Y-3.8336
X6.1642Y-3.9336
T3
X1.69Y-3.63
X1.79Y-3.63
X1.89Y-3.63
X5.4771Y-4.2025
X5.4771Y-4.3025
X5.4771Y-4.4025
X5.4771Y-4.5025
X5.4771Y-4.6025
X5.4771Y-4.7025
X5.4771Y-4.8025
X5.4771Y-4.9025
X5.9771Y-4.2025
X5.9771Y-4.3025
X5.9771Y-4.4025
X5.9771Y-4.5025
X5.9771Y-4.6025
X5.9771Y-4.7025
X5.9771Y-4.8025
X5.9771Y-4.9025
X6.1421Y-4.2025
X6.1421Y-4.3025
X6.1421Y-4.4025
X6.1421Y-4.5025
X6.1421Y-4.6025
X6.1421Y-4.7025
X6.1421Y-4.8025
X6.1421Y-4.9025
X6.6421Y-4.2025
X6.6421Y-4.3025
X6.6421Y-4.4025
X6.6421Y-4.5025
X6.6421Y-4.6025
X6.6421Y-4.7025
X6.6421Y-4.8025
X6.6421Y-4.9025
T4
X1.5143Y-3.0916
X1.5143Y-3.2884
X1.6194Y-5.0
X1.6194Y-5.24
X1.6194Y-5.48
X1.62Y-5.72
X1.6623Y-4.5148
X1.6623Y-4.6148
X1.7194Y-5.0
X1.7194Y-5.24
X1.7194Y-5.48
X1.72Y-5.72
X1.7573Y-2.276
X1.7573Y-2.376
X1.7623Y-4.5148
X1.7623Y-4.6148
X1.8194Y-5.0
X1.8194Y-5.24
X1.8194Y-5.48
X1.82Y-5.72
X1.8573Y-2.276
X1.8573Y-2.376
X1.8623Y-4.5148
X1.8623Y-4.6148
X1.9554Y-2.115
X1.9573Y-2.276
X1.9573Y-2.376
X1.9623Y-4.5148
X1.9623Y-4.6148
X2.0554Y-2.115
X2.0573Y-2.276
X2.0573Y-2.376
X2.0623Y-4.5148
X2.0623Y-4.6148
X2.0851Y-3.0916
X2.0851Y-3.19
X2.0851Y-3.2884
X2.1554Y-2.115
X2.1573Y-2.276
X2.1573Y-2.376
X2.1623Y-4.5148
X2.1623Y-4.6148
X2.2554Y-2.115
X2.2573Y-2.276
X2.2573Y-2.376
X2.2623Y-4.5148
X2.2623Y-4.6148
X2.2625Y-4.715
X2.3573Y-2.276
X2.3573Y-2.376
X2.3623Y-4.5148
X2.3623Y-4.6148
X2.3625Y-4.715
X2.4573Y-2.276
X2.4573Y-2.376
X2.4623Y-4.5148
X2.4623Y-4.6148
X2.4625Y-4.715
X2.5573Y-2.276
X2.5573Y-2.376
X2.5623Y-4.5148
X2.5623Y-4.6148
X2.5625Y-4.715
X2.6573Y-2.276
X2.6573Y-2.376
X2.7573Y-2.276
X2.7573Y-2.376
X2.8573Y-2.276
X2.8573Y-2.376
X2.9573Y-2.276
X2.9573Y-2.376
X3.0573Y-2.276
X3.0573Y-2.376
X3.1573Y-2.276
X3.1573Y-2.376
X3.2573Y-2.276
X3.2573Y-2.376
X3.3573Y-2.276
X3.3573Y-2.376
X3.4573Y-2.276
X3.4573Y-2.376
X3.5573Y-2.276
X3.5573Y-2.376
X3.6573Y-2.276
X3.6573Y-2.376
X5.7971Y-4.4029
X5.7971Y-4.5029
X5.7971Y-4.6029
X5.7971Y-4.7029
X6.4621Y-4.4025
X6.4621Y-4.5025
X6.4621Y-4.6025
X6.4621Y-4.7025
T5
X2.48Y-2.6454
X2.58Y-2.6454
X2.68Y-2.6454
X2.78Y-2.6454
X2.88Y-2.6454
X2.98Y-2.6454
X3.08Y-2.6454
X3.18Y-2.6454
X3.28Y-2.6454
X3.38Y-2.6454
X3.48Y-2.6454
X3.58Y-2.6454
X3.68Y-2.6454
X3.78Y-2.6454
X3.88Y-2.6454
X3.98Y-2.6454
T7
X4.8689Y-2.28
X5.05Y-2.28
T8
X2.362Y-5.4516
X2.362Y-5.6484
X2.638Y-5.4516
X2.638Y-5.6484
X2.782Y-5.4516
X2.782Y-5.6484
X3.058Y-5.4516
X3.058Y-5.6484
X3.202Y-5.4516
X3.202Y-5.6484
X3.478Y-5.4516
X3.478Y-5.6484
X3.622Y-5.4516
X3.622Y-5.6484
X3.898Y-5.4516
X3.898Y-5.6484
X4.042Y-5.4516
X4.042Y-5.6484
X4.311Y-2.142
X4.311Y-2.418
X4.318Y-5.4516
X4.318Y-5.6484
X4.462Y-5.4516
X4.462Y-5.6484
X4.5079Y-2.142
X4.5079Y-2.418
X4.738Y-5.4516
X4.738Y-5.6484
X4.877Y-5.4516
X4.877Y-5.6484
X5.153Y-5.4516
X5.153Y-5.6484
X5.292Y-5.4516
X5.292Y-5.6484
X5.411Y-2.142
X5.411Y-2.418
X5.568Y-5.4516
X5.568Y-5.6484
X5.6079Y-2.142
X5.6079Y-2.418
X5.862Y-5.4516
X5.862Y-5.6484
X6.138Y-5.4516
X6.138Y-5.6484
X6.2566Y-2.192
X6.2566Y-2.468
X6.2566Y-2.622
X6.2566Y-2.898
X6.2566Y-3.057
X6.2566Y-3.333
X6.362Y-5.0766
X6.362Y-5.2734
X6.362Y-5.4516
X6.362Y-5.6484
X6.4534Y-2.192
X6.4534Y-2.468
X6.4534Y-2.622
X6.4534Y-2.898
X6.4534Y-3.057
X6.4534Y-3.333
X6.638Y-5.0766
X6.638Y-5.2734
X6.638Y-5.4516
X6.638Y-5.6484
T9
X2.2635Y-2.6454
X2.2635Y-3.8659
X5.2162Y-3.8659
X5.2162Y-2.6454
T6
G00X1.7662Y-2.9735
M15
G01X1.8135Y-2.9735
M16
G05
G00X1.7662Y-3.4065
M15
G01X1.8135Y-3.4065
M16
G05
T0
M30
