%TF.GenerationSoftware,KiCad,Pcbnew,(6.0.7)*%
%TF.CreationDate,2022-11-14T00:19:26-05:00*%
%TF.ProjectId,MASA_Rover_1.0,4d415341-5f52-46f7-9665-725f312e302e,rev?*%
%TF.SameCoordinates,Original*%
%TF.FileFunction,Soldermask,Bot*%
%TF.FilePolarity,Negative*%
%FSLAX46Y46*%
G04 Gerber Fmt 4.6, Leading zero omitted, Abs format (unit mm)*
G04 Created by KiCad (PCBNEW (6.0.7)) date 2022-11-14 00:19:26*
%MOMM*%
%LPD*%
G01*
G04 APERTURE LIST*
G04 Aperture macros list*
%AMRoundRect*
0 Rectangle with rounded corners*
0 $1 Rounding radius*
0 $2 $3 $4 $5 $6 $7 $8 $9 X,Y pos of 4 corners*
0 Add a 4 corners polygon primitive as box body*
4,1,4,$2,$3,$4,$5,$6,$7,$8,$9,$2,$3,0*
0 Add four circle primitives for the rounded corners*
1,1,$1+$1,$2,$3*
1,1,$1+$1,$4,$5*
1,1,$1+$1,$6,$7*
1,1,$1+$1,$8,$9*
0 Add four rect primitives between the rounded corners*
20,1,$1+$1,$2,$3,$4,$5,0*
20,1,$1+$1,$4,$5,$6,$7,0*
20,1,$1+$1,$6,$7,$8,$9,0*
20,1,$1+$1,$8,$9,$2,$3,0*%
G04 Aperture macros list end*
%ADD10R,1.700000X1.700000*%
%ADD11O,1.700000X1.700000*%
%ADD12C,2.000000*%
%ADD13O,4.000000X2.800000*%
%ADD14C,3.000000*%
%ADD15C,2.700000*%
%ADD16C,3.200000*%
%ADD17R,1.500000X1.500000*%
%ADD18C,1.500000*%
%ADD19C,1.440000*%
%ADD20R,1.800000X2.600000*%
%ADD21O,1.800000X2.600000*%
%ADD22RoundRect,0.250000X-0.475000X0.337500X-0.475000X-0.337500X0.475000X-0.337500X0.475000X0.337500X0*%
%ADD23RoundRect,0.250000X0.475000X-0.337500X0.475000X0.337500X-0.475000X0.337500X-0.475000X-0.337500X0*%
%ADD24RoundRect,0.250000X-0.450000X0.350000X-0.450000X-0.350000X0.450000X-0.350000X0.450000X0.350000X0*%
%ADD25RoundRect,0.250000X0.337500X0.475000X-0.337500X0.475000X-0.337500X-0.475000X0.337500X-0.475000X0*%
%ADD26RoundRect,0.250000X0.350000X0.450000X-0.350000X0.450000X-0.350000X-0.450000X0.350000X-0.450000X0*%
%ADD27R,1.500000X1.000000*%
%ADD28RoundRect,0.250000X0.450000X-0.350000X0.450000X0.350000X-0.450000X0.350000X-0.450000X-0.350000X0*%
%ADD29RoundRect,0.250000X-0.337500X-0.475000X0.337500X-0.475000X0.337500X0.475000X-0.337500X0.475000X0*%
%ADD30RoundRect,0.062500X0.062500X-0.425000X0.062500X0.425000X-0.062500X0.425000X-0.062500X-0.425000X0*%
%ADD31RoundRect,0.062500X0.425000X-0.062500X0.425000X0.062500X-0.425000X0.062500X-0.425000X-0.062500X0*%
%ADD32R,2.700000X2.700000*%
%ADD33R,1.600000X1.600000*%
%ADD34O,1.600000X1.600000*%
%ADD35R,2.200000X1.200000*%
%ADD36R,6.400000X5.800000*%
%ADD37RoundRect,0.250000X-0.350000X-0.450000X0.350000X-0.450000X0.350000X0.450000X-0.350000X0.450000X0*%
G04 APERTURE END LIST*
D10*
%TO.C,J13*%
X46213000Y-133096000D03*
D11*
X43673000Y-133096000D03*
X41133000Y-133096000D03*
%TD*%
D12*
%TO.C,S2*%
X38462000Y-83526000D03*
X38462000Y-78526000D03*
D13*
X45462000Y-86526000D03*
X45462000Y-75526000D03*
D12*
X52962000Y-83526000D03*
X52962000Y-78526000D03*
X52962000Y-81026000D03*
%TD*%
D14*
%TO.C,J9*%
X163917000Y-84658000D03*
X163917000Y-77648000D03*
X158917000Y-84658000D03*
X158917000Y-77648000D03*
%TD*%
D15*
%TO.C,REF\u002A\u002A*%
X153900000Y-131826000D03*
%TD*%
%TO.C,REF\u002A\u002A*%
X39790000Y-59086500D03*
%TD*%
%TO.C,REF\u002A\u002A*%
X153924000Y-59086500D03*
%TD*%
D10*
%TO.C,J15*%
X46228000Y-145288000D03*
D11*
X43688000Y-145288000D03*
X41148000Y-145288000D03*
%TD*%
D14*
%TO.C,J8*%
X158917000Y-55677000D03*
X158917000Y-62687000D03*
X163917000Y-62687000D03*
X163917000Y-55677000D03*
%TD*%
%TO.C,J5*%
X109500000Y-54407000D03*
X114500000Y-61417000D03*
X114500000Y-54407000D03*
X109500000Y-61417000D03*
%TD*%
%TO.C,J16*%
X59995000Y-143470000D03*
X67005000Y-143470000D03*
X67005000Y-138470000D03*
X59995000Y-138470000D03*
%TD*%
D10*
%TO.C,J12*%
X46213000Y-127000000D03*
D11*
X43673000Y-127000000D03*
X41133000Y-127000000D03*
%TD*%
D14*
%TO.C,J22*%
X141427000Y-138470000D03*
X134417000Y-143470000D03*
X141427000Y-143470000D03*
X134417000Y-138470000D03*
%TD*%
%TO.C,J29*%
X168605000Y-138470000D03*
X161595000Y-143470000D03*
X168605000Y-143470000D03*
X161595000Y-138470000D03*
%TD*%
D10*
%TO.C,J1*%
X49667000Y-53721000D03*
D11*
X52207000Y-53721000D03*
X54747000Y-53721000D03*
X57287000Y-53721000D03*
%TD*%
D16*
%TO.C,J3*%
X162921000Y-89753500D03*
X162921000Y-101183500D03*
D17*
X156571000Y-99913500D03*
D18*
X154031000Y-98643500D03*
X156571000Y-97373500D03*
X154031000Y-96103500D03*
X156571000Y-94833500D03*
X154031000Y-93563500D03*
X156571000Y-92293500D03*
X154031000Y-91023500D03*
%TD*%
D15*
%TO.C,REF\u002A\u002A*%
X97790000Y-108086500D03*
%TD*%
%TO.C,REF\u002A\u002A*%
X39790000Y-108086500D03*
%TD*%
D14*
%TO.C,J10*%
X163917000Y-73609000D03*
X158917000Y-73609000D03*
X163917000Y-66599000D03*
X158917000Y-66599000D03*
%TD*%
D10*
%TO.C,J26*%
X147246500Y-111833500D03*
D11*
X147246500Y-114373500D03*
X147246500Y-116913500D03*
X147246500Y-119453500D03*
%TD*%
D10*
%TO.C,J27*%
X164137500Y-111823500D03*
D11*
X164137500Y-114363500D03*
X164137500Y-116903500D03*
X164137500Y-119443500D03*
%TD*%
D14*
%TO.C,J23*%
X120345000Y-143470000D03*
X120345000Y-138470000D03*
X113335000Y-143470000D03*
X113335000Y-138470000D03*
%TD*%
%TO.C,J17*%
X88341000Y-138470000D03*
X88341000Y-143470000D03*
X81331000Y-143470000D03*
X81331000Y-138470000D03*
%TD*%
%TO.C,J4*%
X142440000Y-61417000D03*
X137440000Y-61417000D03*
X142440000Y-54407000D03*
X137440000Y-54407000D03*
%TD*%
%TO.C,J19*%
X91999000Y-138470000D03*
X91999000Y-143470000D03*
X99009000Y-138470000D03*
X99009000Y-143470000D03*
%TD*%
%TO.C,J20*%
X130886000Y-138470000D03*
X130886000Y-143470000D03*
X123876000Y-138470000D03*
X123876000Y-143470000D03*
%TD*%
D19*
%TO.C,RV1*%
X48006000Y-92202000D03*
X45466000Y-92202000D03*
X42926000Y-92202000D03*
%TD*%
D14*
%TO.C,J18*%
X70663000Y-138470000D03*
X70663000Y-143470000D03*
X77673000Y-143470000D03*
X77673000Y-138470000D03*
%TD*%
%TO.C,U3*%
X132492000Y-67192500D03*
X57492900Y-98193200D03*
X132491480Y-98193200D03*
X57492900Y-67192500D03*
D20*
X62992000Y-67192500D03*
D21*
X65532000Y-67192500D03*
X68072000Y-67192500D03*
X70612000Y-67192500D03*
X73152000Y-67192500D03*
X75692000Y-67192500D03*
X78232000Y-67192500D03*
X80772000Y-67192500D03*
X83312000Y-67192500D03*
X85852000Y-67192500D03*
X88392000Y-67192500D03*
X90932000Y-67192500D03*
X93472000Y-67192500D03*
X96012000Y-67192500D03*
X98552000Y-67192500D03*
X101092000Y-67192500D03*
%TD*%
D10*
%TO.C,J7*%
X65082500Y-114676000D03*
D11*
X65082500Y-117216000D03*
X62542500Y-114676000D03*
X62542500Y-117216000D03*
X60002500Y-114676000D03*
X60002500Y-117216000D03*
X57462500Y-114676000D03*
X57462500Y-117216000D03*
X54922500Y-114676000D03*
X54922500Y-117216000D03*
X52382500Y-114676000D03*
X52382500Y-117216000D03*
X49842500Y-114676000D03*
X49842500Y-117216000D03*
X47302500Y-114676000D03*
X47302500Y-117216000D03*
X44762500Y-114676000D03*
X44762500Y-117216000D03*
X42222500Y-114676000D03*
X42222500Y-117216000D03*
%TD*%
D10*
%TO.C,J14*%
X46213000Y-139192000D03*
D11*
X43673000Y-139192000D03*
X41133000Y-139192000D03*
%TD*%
D14*
%TO.C,S1*%
X123670000Y-57912000D03*
X128270000Y-57912000D03*
%TD*%
D15*
%TO.C,REF\u002A\u002A*%
X97790000Y-59086500D03*
%TD*%
D14*
%TO.C,J21*%
X102667000Y-138470000D03*
X102667000Y-143470000D03*
X109677000Y-138470000D03*
X109677000Y-143470000D03*
%TD*%
%TO.C,J24*%
X155905000Y-138470000D03*
X148895000Y-138470000D03*
X148895000Y-143470000D03*
X155905000Y-143470000D03*
%TD*%
D10*
%TO.C,J6*%
X57467500Y-119761000D03*
D11*
X60007500Y-119761000D03*
X62547500Y-119761000D03*
X65087500Y-119761000D03*
%TD*%
D14*
%TO.C,J28*%
X161595000Y-133945000D03*
X161595000Y-128945000D03*
X168605000Y-133945000D03*
X168605000Y-128945000D03*
%TD*%
D12*
%TO.C,TP7*%
X82262000Y-126970000D03*
%TD*%
D22*
%TO.C,C19*%
X50228500Y-78020000D03*
X50228500Y-80095000D03*
%TD*%
D23*
%TO.C,C18*%
X50228500Y-84095500D03*
X50228500Y-82020500D03*
%TD*%
D12*
%TO.C,TP8*%
X121378000Y-125954000D03*
%TD*%
%TO.C,TP5*%
X120777000Y-66802000D03*
%TD*%
D24*
%TO.C,R47*%
X85056000Y-124954000D03*
X85056000Y-126954000D03*
%TD*%
D25*
%TO.C,C13*%
X122957500Y-80518000D03*
X120882500Y-80518000D03*
%TD*%
D24*
%TO.C,R14*%
X54229000Y-73041000D03*
X54229000Y-75041000D03*
%TD*%
%TO.C,R46*%
X65244000Y-124954000D03*
X65244000Y-126954000D03*
%TD*%
D26*
%TO.C,R4*%
X120126000Y-57912000D03*
X118126000Y-57912000D03*
%TD*%
D22*
%TO.C,C25*%
X78486000Y-105388500D03*
X78486000Y-107463500D03*
%TD*%
D24*
%TO.C,R23*%
X155067000Y-67310000D03*
X155067000Y-69310000D03*
%TD*%
D27*
%TO.C,JP6*%
X90644000Y-124654000D03*
X90644000Y-125954000D03*
X90644000Y-127254000D03*
%TD*%
%TO.C,JP2*%
X75946000Y-107726000D03*
X75946000Y-106426000D03*
X75946000Y-105126000D03*
%TD*%
D24*
%TO.C,R9*%
X48069500Y-82058000D03*
X48069500Y-84058000D03*
%TD*%
%TO.C,R49*%
X104868000Y-124954000D03*
X104868000Y-126954000D03*
%TD*%
D12*
%TO.C,TP4*%
X121920000Y-83312000D03*
%TD*%
D24*
%TO.C,R13*%
X49720500Y-73041000D03*
X49720500Y-75041000D03*
%TD*%
D25*
%TO.C,C14*%
X121814500Y-69596000D03*
X119739500Y-69596000D03*
%TD*%
D27*
%TO.C,JP4*%
X114300000Y-115663500D03*
X114300000Y-114363500D03*
X114300000Y-113063500D03*
%TD*%
D28*
%TO.C,R15*%
X149669500Y-95488000D03*
X149669500Y-93488000D03*
%TD*%
D29*
%TO.C,C7*%
X123803500Y-67056000D03*
X125878500Y-67056000D03*
%TD*%
D27*
%TO.C,JP10*%
X110456000Y-124654000D03*
X110456000Y-125954000D03*
X110456000Y-127254000D03*
%TD*%
D10*
%TO.C,J2*%
X44635000Y-57811500D03*
D11*
X44635000Y-60351500D03*
X47175000Y-57811500D03*
X47175000Y-60351500D03*
X49715000Y-57811500D03*
X49715000Y-60351500D03*
X52255000Y-57811500D03*
X52255000Y-60351500D03*
X54795000Y-57811500D03*
X54795000Y-60351500D03*
X57335000Y-57811500D03*
X57335000Y-60351500D03*
X59875000Y-57811500D03*
X59875000Y-60351500D03*
X62415000Y-57811500D03*
X62415000Y-60351500D03*
X64955000Y-57811500D03*
X64955000Y-60351500D03*
X67495000Y-57811500D03*
X67495000Y-60351500D03*
X70035000Y-57811500D03*
X70035000Y-60351500D03*
X72575000Y-57811500D03*
X72575000Y-60351500D03*
X75115000Y-57811500D03*
X75115000Y-60351500D03*
X77655000Y-57811500D03*
X77655000Y-60351500D03*
X80195000Y-57811500D03*
X80195000Y-60351500D03*
X82735000Y-57811500D03*
X82735000Y-60351500D03*
X85275000Y-57811500D03*
X85275000Y-60351500D03*
X87815000Y-57811500D03*
X87815000Y-60351500D03*
X90355000Y-57811500D03*
X90355000Y-60351500D03*
X92895000Y-57811500D03*
X92895000Y-60351500D03*
%TD*%
D29*
%TO.C,C23*%
X80750500Y-105410000D03*
X82825500Y-105410000D03*
%TD*%
D30*
%TO.C,U2*%
X125960000Y-76657500D03*
X125460000Y-76657500D03*
X124960000Y-76657500D03*
X124460000Y-76657500D03*
X123960000Y-76657500D03*
X123460000Y-76657500D03*
X122960000Y-76657500D03*
D31*
X122097500Y-75795000D03*
X122097500Y-75295000D03*
X122097500Y-74795000D03*
X122097500Y-74295000D03*
X122097500Y-73795000D03*
X122097500Y-73295000D03*
X122097500Y-72795000D03*
D30*
X122960000Y-71932500D03*
X123460000Y-71932500D03*
X123960000Y-71932500D03*
X124460000Y-71932500D03*
X124960000Y-71932500D03*
X125460000Y-71932500D03*
X125960000Y-71932500D03*
D31*
X126822500Y-72795000D03*
X126822500Y-73295000D03*
X126822500Y-73795000D03*
X126822500Y-74295000D03*
X126822500Y-74795000D03*
X126822500Y-75295000D03*
X126822500Y-75795000D03*
D32*
X124460000Y-74295000D03*
%TD*%
D12*
%TO.C,TP2*%
X38862000Y-69224500D03*
%TD*%
D27*
%TO.C,JP5*%
X70832000Y-124654000D03*
X70832000Y-125954000D03*
X70832000Y-127254000D03*
%TD*%
D12*
%TO.C,TP9*%
X102074000Y-126970000D03*
%TD*%
D22*
%TO.C,C26*%
X116840000Y-113326000D03*
X116840000Y-115401000D03*
%TD*%
D27*
%TO.C,JP7*%
X67784000Y-127254000D03*
X67784000Y-125954000D03*
X67784000Y-124654000D03*
%TD*%
D12*
%TO.C,TP1*%
X38862000Y-72653500D03*
%TD*%
D24*
%TO.C,R20*%
X155067000Y-63373000D03*
X155067000Y-65373000D03*
%TD*%
D23*
%TO.C,C5*%
X131318000Y-61997500D03*
X131318000Y-59922500D03*
%TD*%
D24*
%TO.C,R12*%
X41783000Y-76470000D03*
X41783000Y-78470000D03*
%TD*%
D29*
%TO.C,C9*%
X124946500Y-80518000D03*
X127021500Y-80518000D03*
%TD*%
%TO.C,C4*%
X44555500Y-66040000D03*
X46630500Y-66040000D03*
%TD*%
D22*
%TO.C,C20*%
X51943000Y-73003500D03*
X51943000Y-75078500D03*
%TD*%
D33*
%TO.C,A1*%
X151818500Y-106743500D03*
D34*
X151818500Y-109283500D03*
X151818500Y-111823500D03*
X151818500Y-114363500D03*
X151818500Y-116903500D03*
X151818500Y-119443500D03*
X151818500Y-121983500D03*
X151818500Y-124523500D03*
X139118500Y-124523500D03*
X139118500Y-121983500D03*
X139118500Y-119443500D03*
X139118500Y-116903500D03*
X139118500Y-114363500D03*
X139118500Y-111823500D03*
X139118500Y-109283500D03*
X139118500Y-106743500D03*
%TD*%
D24*
%TO.C,R48*%
X124172000Y-123938000D03*
X124172000Y-125938000D03*
%TD*%
%TO.C,R16*%
X149669500Y-97806000D03*
X149669500Y-99806000D03*
%TD*%
D27*
%TO.C,JP1*%
X72898000Y-107726000D03*
X72898000Y-106426000D03*
X72898000Y-105126000D03*
%TD*%
D12*
%TO.C,TP3*%
X38862000Y-66049500D03*
%TD*%
D28*
%TO.C,R11*%
X43878500Y-83042000D03*
X43878500Y-81042000D03*
%TD*%
D27*
%TO.C,JP9*%
X129760000Y-123638000D03*
X129760000Y-124938000D03*
X129760000Y-126238000D03*
%TD*%
%TO.C,JP11*%
X126712000Y-126238000D03*
X126712000Y-124938000D03*
X126712000Y-123638000D03*
%TD*%
D33*
%TO.C,A2*%
X168709500Y-106743500D03*
D34*
X168709500Y-109283500D03*
X168709500Y-111823500D03*
X168709500Y-114363500D03*
X168709500Y-116903500D03*
X168709500Y-119443500D03*
X168709500Y-121983500D03*
X168709500Y-124523500D03*
X156009500Y-124523500D03*
X156009500Y-121983500D03*
X156009500Y-119443500D03*
X156009500Y-116903500D03*
X156009500Y-114363500D03*
X156009500Y-111823500D03*
X156009500Y-109283500D03*
X156009500Y-106743500D03*
%TD*%
D29*
%TO.C,C3*%
X44555500Y-63563500D03*
X46630500Y-63563500D03*
%TD*%
D27*
%TO.C,JP8*%
X87596000Y-127254000D03*
X87596000Y-125954000D03*
X87596000Y-124654000D03*
%TD*%
D29*
%TO.C,D1*%
X139253500Y-73151000D03*
X141328500Y-73151000D03*
%TD*%
%TO.C,C8*%
X123803500Y-69342000D03*
X125878500Y-69342000D03*
%TD*%
%TO.C,C24*%
X80750500Y-107696000D03*
X82825500Y-107696000D03*
%TD*%
D27*
%TO.C,JP3*%
X119380000Y-115663500D03*
X119380000Y-114363500D03*
X119380000Y-113063500D03*
%TD*%
D29*
%TO.C,C10*%
X124946500Y-82804000D03*
X127021500Y-82804000D03*
%TD*%
D23*
%TO.C,C75*%
X129413000Y-75205500D03*
X129413000Y-73130500D03*
%TD*%
D22*
%TO.C,C17*%
X41719500Y-81004500D03*
X41719500Y-83079500D03*
%TD*%
D27*
%TO.C,JP12*%
X107408000Y-127254000D03*
X107408000Y-125954000D03*
X107408000Y-124654000D03*
%TD*%
D35*
%TO.C,Q1*%
X136345000Y-70605000D03*
D36*
X142645000Y-68325000D03*
D35*
X136345000Y-66045000D03*
%TD*%
D26*
%TO.C,R3*%
X137243000Y-73151000D03*
X135243000Y-73151000D03*
%TD*%
D28*
%TO.C,R10*%
X48069500Y-80057500D03*
X48069500Y-78057500D03*
%TD*%
D23*
%TO.C,C6*%
X133604000Y-61997500D03*
X133604000Y-59922500D03*
%TD*%
D37*
%TO.C,R1*%
X143355000Y-73151000D03*
X145355000Y-73151000D03*
%TD*%
D12*
%TO.C,TP6*%
X62450000Y-126970000D03*
%TD*%
M02*
